<svg xmlns="http://www.w3.org/2000/svg" xmlns:xlink="http://www.w3.org/1999/xlink" viewBox="0 0 220 60"><defs><linearGradient id="a" y1="29.86425" x2="220" y2="29.86425" gradientUnits="userSpaceOnUse"><stop offset="0" stop-color="#0075d9"/><stop offset="1" stop-color="#00a8ff"/></linearGradient></defs><title>logo</title><rect width="220" height="59.72851" style="fill:url(#a)"/><g style="opacity:0.15"><path d="M51.17664,15.5918a5.47973,5.47973,0,0,0,5.30157-4.7959A4.20366,4.20366,0,0,0,52.23309,6a5.4794,5.4794,0,0,0-5.30145,4.7959,4.56825,4.56825,0,0,0,.17963,1.89044L41.296,17.947a9.40844,9.40844,0,0,0-6.34863-2.35547,11.88492,11.88492,0,0,0-9.28931,4.74866L15.82123,15.2915a5.01047,5.01047,0,0,0,.13867-.65894,4.20377,4.20377,0,0,0-4.24512-4.796,5.47946,5.47946,0,0,0-5.30145,4.796,4.20354,4.20354,0,0,0,4.245,4.7959,5.30755,5.30755,0,0,0,3.65192-1.53564l9.82465,5.0423a11.3048,11.3048,0,0,0-.851,3.20758,9.65262,9.65262,0,0,0,1.61292,6.63922L11.77228,44.6546a3.99352,3.99352,0,0,0-1.47424-.28729,4.93143,4.93143,0,0,0-4.77142,4.31628,3.78317,3.78317,0,0,0,3.8205,4.31628,4.93151,4.93151,0,0,0,4.77142-4.31628,4.00332,4.00332,0,0,0-.35956-2.1615l13.0155-11.77417A9.46668,9.46668,0,0,0,32.623,36.69366c.25549,0,.50818-.02039.76111-.03839L34.68958,44.995a4.7926,4.7926,0,0,0-2.23578,4.65869,3.82792,3.82792,0,0,0,4.92529,3.05212,4.87893,4.87893,0,0,0,3.62-5.28644A3.723,3.723,0,0,0,37.538,44.25018l-1.28241-8.19257a12.30926,12.30926,0,0,0,5.58752-4.03406l3.593,1.844a5.07308,5.07308,0,0,0-.1911.90784A4.20362,4.20362,0,0,0,49.49,39.57129a5.47932,5.47932,0,0,0,5.30151-4.7959,4.2035,4.2035,0,0,0-4.245-4.79578,5.28514,5.28514,0,0,0-3.46533,1.35553l-3.68524-1.89136a11.28688,11.28688,0,0,0,.8905-3.30109A9.72558,9.72558,0,0,0,43.02087,20.051l5.73407-5.18726A4.31967,4.31967,0,0,0,51.17664,15.5918ZM41.42249,26.1427A8.7671,8.7671,0,0,1,32.94,33.81586a6.72561,6.72561,0,0,1-6.792-7.67316A8.76734,8.76734,0,0,1,34.63043,18.469,6.726,6.726,0,0,1,41.42249,26.1427Z" style="fill-rule:evenodd"/></g><path d="M50.5,29a4.97664,4.97664,0,0,0-3.47345,1.41327l-4.07867-1.97192a10.972,10.972,0,0,0-1.4765-9.79236l5.408-5.408a4.96114,4.96114,0,1,0-1.973-2.27008l-5.4845,5.4845a10.98826,10.98826,0,0,0-16.10455,2.49493L12.43079,13.687A4.94921,4.94921,0,0,0,12.5,13a5.03381,5.03381,0,1,0-1.35175,3.39886L22.02112,21.6557a10.98472,10.98472,0,0,0,1.93439,10.26593l-12.378,12.378a4.55395,4.55395,0,1,0,2.29645,1.947L26.14911,33.97131a10.93815,10.93815,0,0,0,6.35077,2.02856c.26764,0,.53-.02124.79285-.04l2.32965,8.69458a4.5,4.5,0,1,0,2.89777-.77655l-2.28857-8.54108A11.04571,11.04571,0,0,0,41.619,31.13092l3.97638,1.92255A4.99727,4.99727,0,1,0,50.5,29ZM32.49988,32.99957A8,8,0,1,1,40.5,24.99976,7.99986,7.99986,0,0,1,32.49988,32.99957Z" style="fill:#66b0eb;fill-rule:evenodd"/><path d="M73.5415,32.17676v-5.6582H68.36377a11.4719,11.4719,0,0,1-2.15283,6.13867q-.46289-.5874-1.0498-1.22754a9.55567,9.55567,0,0,0,1.56592-3.62988,28.97074,28.97074,0,0,0,.39111-5.44482V16.00342h14.501v14.145q0,2.1167-2.01025,2.11719-1.22827,0-2.7583-.05371-.08862-.5874-.2666-1.47656,1.54761.10693,2.50879.10693,1.103,0,1.103-1.0498V26.51855h-5.231v5.6582ZM68.46191,25.2373H73.5415V21.91016h-5A29.20682,29.20682,0,0,1,68.46191,25.2373Zm.07959-7.91748v3.30957h5V17.31982Zm11.6543,0h-5.231v3.30957h5.231Zm-5.231,7.91748h5.231V21.91016h-5.231Z" style="fill:#fff"/><path d="M90.72852,15.52295l1.28125-.76514q.854,1.0144,1.69043,2.20605l-.87207.55176h6.63672v7.88184H98.0415v-.9248H86.80566a14.0035,14.0035,0,0,1-2.64258,8.18457q-.47974-.5874-1.03174-1.1748,2.2771-2.77515,2.27734-8.32666V17.51563h6.78809A22.49751,22.49751,0,0,0,90.72852,15.52295ZM86.832,18.79639v4.395H98.0415v-4.395Z" style="fill:#fff"/><path d="M103.94824,25.2373q1.81494-.23071,3.79-.48-.07178.76465-.125,1.20947-2.63379.33838-5.28418.72949l-.28418-1.29883a14.14642,14.14642,0,0,0,2.80176-3.68311q-1.957.12524-2.92676.21387l-.35547-1.17432a23.25414,23.25414,0,0,0,3.042-5.72949l1.44141.49854q-1.54834,2.918-2.918,5.124,1.46777-.00879,2.34863-.03564.71191-1.27222,1.5127-2.86426l1.36914.605A72.09713,72.09713,0,0,1,103.94824,25.2373Zm-2.24219,4.02148q2.58105-.48047,6.19238-1.28125-.07178.81885-.07129,1.35205-3.70166.76538-5.72949,1.28125Zm5.16016,2.29492V30.27295h2.11719V16.021h8.61133v14.252h1.56641v1.28076Zm9.377-14.25146h-5.90723v3.50488h5.90723ZM110.33594,25.54h5.90723V22.03467h-5.90723Zm0,4.73291h5.90723V26.76758h-5.90723Z" style="fill:#fff"/><path d="M119.69531,29.68555q2.562-.51562,6.03125-1.35205-.0542.96094-.05371,1.31641-3.75439.88989-5.58691,1.40576Zm2.29492-4.09229Q124,25.30908,125.584,25.042q-.10693.6936-.16016,1.35205-2.41992.356-5.05273.78271l-.28516-1.31641a23.14869,23.14869,0,0,0,2.65137-3.72754q-1.59229.08862-2.66895.20459l-.33789-1.21a30.76056,30.76056,0,0,0,3.38086-6.29834l1.35156.53369q-1.72559,3.38086-3.14941,5.65771,1.166-.01758,2.09961-.05322.668-1.17407,1.40625-2.58008l1.334.5874Q123.92969,22.85352,121.99023,25.59326Zm6.957.69385,1.29883.7832a42.2718,42.2718,0,0,1-4.39551,5.46191,12.77841,12.77841,0,0,0-1.17383-.96094A25.5899,25.5899,0,0,0,128.94727,26.28711ZM126.6875,16.09229h9.501V25.7002h-1.37012v-.99658h-6.76074v.99658H126.6875Zm8.13086,1.24561h-6.76074V23.458h6.76074Zm-2.47266,9.85693,1.17383-.83643q1.97461,2.313,4.05664,4.92871l-1.29883.96094Q134.373,29.65015,132.3457,27.19482Z" style="fill:#fff"/><path d="M145.47656,30.48633l5.21289.10693,4.91113-.1958q-.30322.72876-.56934,1.42285l-5.30273.03613-4.55469-.05371a5.05269,5.05269,0,0,1-4.252-2.064,18.43337,18.43337,0,0,0-2.24219,2.33057l-.76465-1.51172q.04395-.05347,2.36621-2.02832V22.46191h-2.27734V21.145h3.7002v7.6333A4.69484,4.69484,0,0,0,145.47656,30.48633Zm-5.58691-15.42627q1.36963,1.65527,2.7041,3.4165l-1.2627.854q-1.19238-1.77905-2.52734-3.4873Zm10.03516,8.772,1.12012-.71191q2.01123,2.63379,3.55859,5.0708l-1.28027.87207q-.40137-.676-.81934-1.35254-5.05225.3208-7.24121.605A7.75562,7.75562,0,0,0,144,28.61816l-.65918-1.28125a4.59256,4.59256,0,0,0,1.15723-1.13867,37.32327,37.32327,0,0,0,2.38379-4.25244h-3.79V20.59375h12.18848V21.9458h-6.708q-1.53955,2.82935-2.97168,4.96436,2.7041-.1604,6.14746-.3916Q150.86768,25.15771,149.9248,23.832Zm-5.64062-7.82861H154.248v1.35205h-9.96387Z" style="fill:#fff"/><path d="M167.05859,14.918h1.29883v1.459h5.33789v1.17432h-5.33789v1.06738h-1.29883V17.55127h-4.2168v1.06738H161.543V17.55127h-5.2666V16.377h5.2666V14.918h1.29883v1.459h4.2168Zm-10.248,4.18115H173.1084V22.355h-1.35254V20.27344H158.16309V22.355h-1.35254Zm1.49414,7.97119h13.30859v5.42676h-1.35156v-.88965H159.65723v.88965h-1.35254Zm1.28125-5.48047H170.333v4.44824h-1.35254v-.40918h-8.042v.40918h-1.35254Zm10.67578,6.5835H159.65723v2.33057h10.60449Zm-1.28125-5.48h-8.042v1.83252h8.042Z" style="fill:#fff"/><path d="M174.54883,24.5791h7.88184v-7.437h-7.08105V15.772h15.72852v1.37012h-7.15234v7.437h7.93457v1.37012h-7.93457v6.54785h-1.49512V25.94922h-7.88184Zm1.708-5.48,1.12109-.78271a46.95063,46.95063,0,0,1,3.43359,4.50146l-1.2627.94287A49.817,49.817,0,0,0,176.25684,19.09912Zm9.05664,3.70068a29.09681,29.09681,0,0,0,3.52246-4.55469l1.335.854a50.01316,50.01316,0,0,1-3.75488,4.626Z" style="fill:#fff"/><path d="M205.13379,17.2666q2.79346,2.5979,5.28516,5.31982l-1.26367,1.0498q-.71191-.83643-1.44141-1.646-7.98779.33838-12.20508.57861a12.01577,12.01577,0,0,0-1.88672.28467l-.58691-1.53027a5.16275,5.16275,0,0,0,1.47656-.83643,35.574,35.574,0,0,0,5.56934-5.74707l1.335.81885a47.47576,47.47576,0,0,1-5.56934,5.56885q5.45361-.16919,10.72852-.3916-1.21875-1.325-2.47266-2.57959ZM207.75,24.33008V32.4082h-1.459V31.2334h-9.78613v1.1748h-1.459V24.33008Zm-1.459,1.31641h-9.78613v4.30615H206.291Z" style="fill:#fff"/><g style="opacity:0.30000000000000004"><path d="M71.14063,45.48828q0,3.50684-3.18115,3.50684-3.04834,0-3.04785-3.38379V40.58789H65.979v4.97559q0,2.48145,2.08154,2.48145,2.0127,0,2.0127-2.40137V40.58789h1.06738Z" style="fill:#fff"/><path d="M72.71,47.58105a2.84965,2.84965,0,0,0,1.70264.57129q1.22241,0,1.22266-.80078a.69879.69879,0,0,0-.26709-.56348,4.17369,4.17369,0,0,0-1.0835-.52539,3.10166,3.10166,0,0,1-1.27588-.78223,1.50684,1.50684,0,0,1-.29346-.93652,1.47167,1.47167,0,0,1,.66455-1.25781,2.75509,2.75509,0,0,1,1.63623-.47168,3.7018,3.7018,0,0,1,1.39844.26074V44.085a2.7039,2.7039,0,0,0-1.5-.42773,1.4025,1.4025,0,0,0-.81641.21875.67264.67264,0,0,0-.31494.57715.6907.6907,0,0,0,.22656.5498,4.03436,4.03436,0,0,0,1.00635.50684,3.39334,3.39334,0,0,1,1.33447.76367,1.42712,1.42712,0,0,1,.34668.97656,1.47955,1.47955,0,0,1-.66455,1.27832,2.92675,2.92675,0,0,1-1.72119.4668A3.492,3.492,0,0,1,72.71,48.64844Z" style="fill:#fff"/><path d="M82.91016,46.17188H78.77881a2.125,2.125,0,0,0,.51807,1.46,1.80657,1.80657,0,0,0,1.37158.51465,2.92507,2.92507,0,0,0,1.82031-.63477v.93359a3.51586,3.51586,0,0,1-2.06592.5498,2.53044,2.53044,0,0,1-1.999-.81152,3.28163,3.28163,0,0,1-.71777-2.252,3.22608,3.22608,0,0,1,.7876-2.23633,2.51439,2.51439,0,0,1,1.95605-.88086,2.27844,2.27844,0,0,1,1.80957.74414,3.064,3.064,0,0,1,.65088,2.085Zm-1.0459-.83789a1.87383,1.87383,0,0,0-.37891-1.23926,1.30975,1.30975,0,0,0-1.05176-.4375,1.46521,1.46521,0,0,0-1.08057.46484,2.15042,2.15042,0,0,0-.57422,1.21191Z" style="fill:#fff"/><path d="M87.46875,43.98828a1.22654,1.22654,0,0,0-.7207-.18652,1.18173,1.18173,0,0,0-1.00342.56836,2.57075,2.57075,0,0,0-.395,1.49707v2.98926H84.30322V42.95313h1.04639V44.1543h.021a1.61512,1.61512,0,0,1,1.54834-1.30273,1.47734,1.47734,0,0,1,.5498.08008Z" style="fill:#fff"/><path d="M91.31738,45.96875a3.1857,3.1857,0,0,1,.81689-2.30859,2.9366,2.9366,0,0,1,2.21484-.8457,2.7052,2.7052,0,0,1,2.08447.81348,3.64435,3.64435,0,0,1-.05078,4.50781,2.82054,2.82054,0,0,1-2.16162.85938,2.77383,2.77383,0,0,1-2.11377-.833A3.05381,3.05381,0,0,1,91.31738,45.96875Zm1.06738-.03223A2.35082,2.35082,0,0,0,92.8999,47.543a1.75038,1.75038,0,0,0,1.38525.58789,1.66425,1.66425,0,0,0,1.3667-.57422,3.1359,3.1359,0,0,0,0-3.30176,1.66261,1.66261,0,0,0-1.3667-.57617,1.72479,1.72479,0,0,0-1.39062.60352A2.4826,2.4826,0,0,0,92.38477,45.93652Z" style="fill:#fff"/><path d="M101.82813,43.98828a1.23071,1.23071,0,0,0-.7207-.18652,1.18191,1.18191,0,0,0-1.00391.56836,2.57075,2.57075,0,0,0-.395,1.49707v2.98926H98.66211V42.95313H99.7085V44.1543h.021a1.615,1.615,0,0,1,1.54785-1.30273,1.4848,1.4848,0,0,1,.55078.08008Z" style="fill:#fff"/><path d="M107.80566,48.36035q0,3.27686-3.18164,3.27734a4.18631,4.18631,0,0,1-1.91113-.41113V50.21777a3.90323,3.90323,0,0,0,1.89551.5498q2.15039,0,2.15039-2.26367v-.624h-.02051a2.37367,2.37367,0,0,1-3.78516.32031,3.1758,3.1758,0,0,1-.667-2.1084,3.62332,3.62332,0,0,1,.73633-2.39453,2.42929,2.42929,0,0,1,1.96484-.88281,1.9076,1.9076,0,0,1,1.751.93945h.02051v-.80078h1.04688Zm-1.04687-3.0166a1.62758,1.62758,0,0,0-.459-1.17383,1.5111,1.5111,0,0,0-1.1416-.49121,1.57165,1.57165,0,0,0-1.3291.627,2.7883,2.7883,0,0,0-.47559,1.72168,2.38728,2.38728,0,0,0,.459,1.52148,1.47479,1.47479,0,0,0,1.2168.582,1.58222,1.58222,0,0,0,1.249-.55566,2.03818,2.03818,0,0,0,.48047-1.40918Z" style="fill:#fff"/><path d="M109.8125,43.36426a3.75214,3.75214,0,0,1,2.0332-.5498q2.13574,0,2.13477,2.24121v3.80078h-1.03516v-.91309h-.02637a1.97309,1.97309,0,0,1-1.80957,1.05176,1.94348,1.94348,0,0,1-1.36621-.46387,1.61655,1.61655,0,0,1-.50781-1.25488q0-1.65381,1.959-1.92676l1.751-.24512q0-1.44727-1.19531-1.44727a2.98605,2.98605,0,0,0-1.9375.71582Zm1.75,2.7168a1.78523,1.78523,0,0,0-1,.3623.99521.99521,0,0,0-.27539.748.88019.88019,0,0,0,.29883.68848,1.143,1.143,0,0,0,.79.2666,1.46285,1.46285,0,0,0,1.126-.48047,1.70912,1.70912,0,0,0,.44336-1.20605v-.56641Z" style="fill:#fff"/><path d="M120.707,48.85645h-1.041V45.499q0-1.8208-1.3291-1.82031a1.43015,1.43015,0,0,0-1.13184.5127,1.9132,1.9132,0,0,0-.44238,1.29688v3.36816h-1.0459V42.95313h1.0459v.97656h.02148a2.12842,2.12842,0,0,1,1.9375-1.11523,1.79772,1.79772,0,0,1,1.47852.62109,2.81312,2.81312,0,0,1,.50684,1.8125Z" style="fill:#fff"/><path d="M122.32422,40.87109a.64708.64708,0,0,1,.65723-.65625.66578.66578,0,0,1,.47754.18652.624.624,0,0,1,.19434.46973.60843.60843,0,0,1-.19434.46191.66746.66746,0,0,1-.47754.18359.63812.63812,0,0,1-.46973-.18359A.62054.62054,0,0,1,122.32422,40.87109Zm.123,7.98535V42.95313h1.0459v5.90332Z" style="fill:#fff"/><path d="M129.51367,48.85645h-4.90039v-.34668l3.43262-4.69238h-3.1123v-.86426h4.60156v.3418L126.124,47.99219h3.38965Z" style="fill:#fff"/><path d="M130.875,43.36426a3.75214,3.75214,0,0,1,2.0332-.5498q2.13574,0,2.13477,2.24121v3.80078h-1.03516v-.91309h-.02637a1.97309,1.97309,0,0,1-1.80957,1.05176,1.94348,1.94348,0,0,1-1.36621-.46387,1.61655,1.61655,0,0,1-.50781-1.25488q0-1.65381,1.959-1.92676l1.751-.24512q0-1.44727-1.19531-1.44727a2.98605,2.98605,0,0,0-1.9375.71582Zm1.75,2.7168a1.78523,1.78523,0,0,0-1,.3623.99521.99521,0,0,0-.27539.748.88019.88019,0,0,0,.29883.68848,1.143,1.143,0,0,0,.79.2666,1.46285,1.46285,0,0,0,1.126-.48047,1.70912,1.70912,0,0,0,.44336-1.20605v-.56641Z" style="fill:#fff"/><path d="M139.61328,48.79785a1.93973,1.93973,0,0,1-.92383.18652q-1.585,0-1.585-1.75586V43.81738h-1.01465v-.86426h1.01465V41.5332l1.041-.33105v1.751h1.46777v.86426h-1.46777V47.042a1.35994,1.35994,0,0,0,.19727.832.78447.78447,0,0,0,.65625.251.98989.98989,0,0,0,.61426-.19727Z" style="fill:#fff"/><path d="M140.72266,40.87109a.64708.64708,0,0,1,.65723-.65625.66578.66578,0,0,1,.47754.18652.624.624,0,0,1,.19434.46973.60843.60843,0,0,1-.19434.46191.66746.66746,0,0,1-.47754.18359.63812.63812,0,0,1-.46973-.18359A.62054.62054,0,0,1,140.72266,40.87109Zm.123,7.98535V42.95313h1.0459v5.90332Z" style="fill:#fff"/><path d="M143.36523,45.96875a3.18752,3.18752,0,0,1,.81641-2.30859,2.93885,2.93885,0,0,1,2.21582-.8457,2.70553,2.70553,0,0,1,2.084.81348,3.64614,3.64614,0,0,1-.05078,4.50781,2.82091,2.82091,0,0,1-2.16211.85938,2.7742,2.7742,0,0,1-2.11328-.833A3.0559,3.0559,0,0,1,143.36523,45.96875Zm1.06738-.03223a2.34856,2.34856,0,0,0,.51563,1.60645,1.748,1.748,0,0,0,1.38477.58789,1.662,1.662,0,0,0,1.36621-.57422,3.1359,3.1359,0,0,0,0-3.30176,1.66032,1.66032,0,0,0-1.36621-.57617,1.72479,1.72479,0,0,0-1.39062.60352A2.4826,2.4826,0,0,0,144.43262,45.93652Z" style="fill:#fff"/><path d="M155.70117,48.85645h-1.041V45.499q0-1.8208-1.3291-1.82031a1.43015,1.43015,0,0,0-1.13184.5127,1.9132,1.9132,0,0,0-.44238,1.29688v3.36816h-1.0459V42.95313h1.0459v.97656h.02148a2.12842,2.12842,0,0,1,1.9375-1.11523,1.79772,1.79772,0,0,1,1.47852.62109,2.81311,2.81311,0,0,1,.50684,1.8125Z" style="fill:#fff"/><path d="M160.28613,45.96875a3.18752,3.18752,0,0,1,.81641-2.30859,2.93885,2.93885,0,0,1,2.21582-.8457,2.70553,2.70553,0,0,1,2.084.81348,3.64614,3.64614,0,0,1-.05078,4.50781,2.82091,2.82091,0,0,1-2.16211.85938,2.7742,2.7742,0,0,1-2.11328-.833A3.0559,3.0559,0,0,1,160.28613,45.96875Zm1.06738-.03223a2.34856,2.34856,0,0,0,.51563,1.60645,1.748,1.748,0,0,0,1.38477.58789,1.662,1.662,0,0,0,1.36621-.57422,3.1359,3.1359,0,0,0,0-3.30176,1.66032,1.66032,0,0,0-1.36621-.57617,1.72479,1.72479,0,0,0-1.39062.60352A2.4826,2.4826,0,0,0,161.35352,45.93652Z" style="fill:#fff"/><path d="M168.67676,48.02344v3.5498h-1.0459V42.95313h1.0459v1.01953h.02148a2.22521,2.22521,0,0,1,2.02832-1.1582,2.16,2.16,0,0,1,1.77441.792,3.27785,3.27785,0,0,1,.64355,2.127,3.63717,3.63717,0,0,1-.72852,2.36816,2.40055,2.40055,0,0,1-1.96191.89355,1.96477,1.96477,0,0,1-1.75586-.97168Zm-.00586-1.60059a1.70472,1.70472,0,0,0,.46484,1.21387,1.63146,1.63146,0,0,0,2.46582-.14648,2.94421,2.94421,0,0,0,.46973-1.77246,2.31866,2.31866,0,0,0-.4375-1.49707,1.45432,1.45432,0,0,0-1.19531-.542,1.63552,1.63552,0,0,0-1.27051.5498,2.02129,2.02129,0,0,0-.49707,1.40918Z" style="fill:#fff"/><path d="M179.42188,46.17188H175.291a2.12476,2.12476,0,0,0,.51758,1.46,1.80624,1.80624,0,0,0,1.37207.51465A2.92239,2.92239,0,0,0,179,47.51172v.93359a3.51527,3.51527,0,0,1-2.06543.5498,2.53044,2.53044,0,0,1-1.999-.81152,3.28163,3.28163,0,0,1-.71777-2.252,3.23035,3.23035,0,0,1,.78711-2.23633,2.51581,2.51581,0,0,1,1.95605-.88086,2.27708,2.27708,0,0,1,1.80957.74414,3.06165,3.06165,0,0,1,.65137,2.085ZM178.376,45.334a1.87649,1.87649,0,0,0-.37891-1.23926,1.30975,1.30975,0,0,0-1.05176-.4375,1.467,1.467,0,0,0-1.08105.46484A2.15259,2.15259,0,0,0,175.291,45.334Z" style="fill:#fff"/><path d="M183.98047,43.98828a1.22654,1.22654,0,0,0-.7207-.18652,1.18251,1.18251,0,0,0-1.00391.56836,2.578,2.578,0,0,0-.39453,1.49707v2.98926h-1.0459V42.95313h1.0459V44.1543h.02148a1.61423,1.61423,0,0,1,1.54785-1.30273,1.4756,1.4756,0,0,1,.5498.08008Z" style="fill:#fff"/><path d="M185.12793,43.36426a3.75214,3.75214,0,0,1,2.0332-.5498q2.13574,0,2.13477,2.24121v3.80078h-1.03516v-.91309h-.02637a1.97309,1.97309,0,0,1-1.80957,1.05176,1.94348,1.94348,0,0,1-1.36621-.46387,1.61655,1.61655,0,0,1-.50781-1.25488q0-1.65381,1.959-1.92676l1.751-.24512q0-1.44727-1.19531-1.44727a2.98605,2.98605,0,0,0-1.9375.71582Zm1.75,2.7168a1.78523,1.78523,0,0,0-1,.3623.99521.99521,0,0,0-.27539.748.88019.88019,0,0,0,.29883.68848,1.143,1.143,0,0,0,.79.2666,1.46285,1.46285,0,0,0,1.126-.48047,1.70912,1.70912,0,0,0,.44336-1.20605v-.56641Z" style="fill:#fff"/><path d="M193.86621,48.79785a1.93973,1.93973,0,0,1-.92383.18652q-1.585,0-1.585-1.75586V43.81738h-1.01465v-.86426h1.01465V41.5332l1.041-.33105v1.751h1.46777v.86426h-1.46777V47.042a1.35994,1.35994,0,0,0,.19727.832.78447.78447,0,0,0,.65625.251.98989.98989,0,0,0,.61426-.19727Z" style="fill:#fff"/><path d="M194.97559,40.87109a.64708.64708,0,0,1,.65723-.65625.66578.66578,0,0,1,.47754.18652.624.624,0,0,1,.19434.46973.60843.60843,0,0,1-.19434.46191.66746.66746,0,0,1-.47754.18359.63813.63813,0,0,1-.46973-.18359A.62054.62054,0,0,1,194.97559,40.87109Zm.123,7.98535V42.95313h1.0459v5.90332Z" style="fill:#fff"/><path d="M197.61816,45.96875a3.18752,3.18752,0,0,1,.81641-2.30859,2.93885,2.93885,0,0,1,2.21582-.8457,2.70553,2.70553,0,0,1,2.084.81348,3.64614,3.64614,0,0,1-.05078,4.50781,2.82091,2.82091,0,0,1-2.16211.85938,2.7742,2.7742,0,0,1-2.11328-.833A3.0559,3.0559,0,0,1,197.61816,45.96875Zm1.06738-.03223a2.34856,2.34856,0,0,0,.51563,1.60645,1.748,1.748,0,0,0,1.38477.58789,1.662,1.662,0,0,0,1.36621-.57422,3.1359,3.1359,0,0,0,0-3.30176,1.66032,1.66032,0,0,0-1.36621-.57617,1.72479,1.72479,0,0,0-1.39062.60352A2.4826,2.4826,0,0,0,198.68555,45.93652Z" style="fill:#fff"/><path d="M209.95313,48.85645h-1.041V45.499q0-1.8208-1.3291-1.82031a1.43015,1.43015,0,0,0-1.13184.5127,1.9132,1.9132,0,0,0-.44238,1.29688v3.36816h-1.0459V42.95313h1.0459v.97656h.02148a2.12842,2.12842,0,0,1,1.9375-1.11523,1.79772,1.79772,0,0,1,1.47852.62109,2.81312,2.81312,0,0,1,.50684,1.8125Z" style="fill:#fff"/></g></svg>