<?xml version="1.0" standalone="no"?><!DOCTYPE svg PUBLIC "-//W3C//DTD SVG 1.1//EN" "http://www.w3.org/Graphics/SVG/1.1/DTD/svg11.dtd"><svg t="1544670085615" class="icon" style="" viewBox="0 0 1024 1024" version="1.1" xmlns="http://www.w3.org/2000/svg" p-id="5447" xmlns:xlink="http://www.w3.org/1999/xlink" width="128" height="128"><defs><style type="text/css"></style></defs><path d="M921.6 512c0 226.2-183.4 409.6-409.6 409.6S102.4 738.2 102.4 512 285.8 102.4 512 102.4 921.6 285.8 921.6 512z" fill="#D8DFE5" p-id="5448"></path><path d="M512 281.6m-51.2 0a51.2 51.2 0 1 0 102.4 0 51.2 51.2 0 1 0-102.4 0Z" fill="#FFFFFF" p-id="5449"></path><path d="M563.2 691.2v-256c0-28.3-22.9-51.2-51.2-51.2h-51.2c-28.3 0-51.2 22.9-51.2 51.2s22.9 51.2 51.2 51.2v204.8c-28.3 0-51.2 22.9-51.2 51.2s22.9 51.2 51.2 51.2h102.4c28.3 0 51.2-22.9 51.2-51.2s-22.9-51.2-51.2-51.2z" fill="#FFFFFF" p-id="5450"></path></svg>