<svg xmlns="http://www.w3.org/2000/svg" viewBox="0 0 220 60"><title>logo</title><g style="opacity:0.15"><path d="M51.17664,15.5918a5.47973,5.47973,0,0,0,5.30157-4.7959A4.20366,4.20366,0,0,0,52.23309,6a5.4794,5.4794,0,0,0-5.30145,4.7959,4.56825,4.56825,0,0,0,.17963,1.89044L41.296,17.947a9.40844,9.40844,0,0,0-6.34863-2.35547,11.88492,11.88492,0,0,0-9.28931,4.74866L15.82123,15.2915a5.01047,5.01047,0,0,0,.13867-.65894,4.20377,4.20377,0,0,0-4.24512-4.796,5.47946,5.47946,0,0,0-5.30145,4.796,4.20354,4.20354,0,0,0,4.245,4.7959,5.30755,5.30755,0,0,0,3.65192-1.53564l9.82465,5.0423a11.3048,11.3048,0,0,0-.851,3.20758,9.65262,9.65262,0,0,0,1.61292,6.63922L11.77228,44.6546a3.99352,3.99352,0,0,0-1.47424-.28729,4.93143,4.93143,0,0,0-4.77142,4.31628,3.78317,3.78317,0,0,0,3.8205,4.31628,4.93151,4.93151,0,0,0,4.77142-4.31628,4.00332,4.00332,0,0,0-.35956-2.1615l13.0155-11.77417A9.46668,9.46668,0,0,0,32.623,36.69366c.25549,0,.50818-.02039.76111-.03839L34.68958,44.995a4.7926,4.7926,0,0,0-2.23578,4.65869,3.82792,3.82792,0,0,0,4.92529,3.05212,4.87893,4.87893,0,0,0,3.62-5.28644A3.723,3.723,0,0,0,37.538,44.25018l-1.28241-8.19257a12.30926,12.30926,0,0,0,5.58752-4.03406l3.593,1.844a5.07308,5.07308,0,0,0-.1911.90784A4.20362,4.20362,0,0,0,49.49,39.57129a5.47932,5.47932,0,0,0,5.30151-4.7959,4.2035,4.2035,0,0,0-4.245-4.79578,5.28514,5.28514,0,0,0-3.46533,1.35553l-3.68524-1.89136a11.28688,11.28688,0,0,0,.8905-3.30109A9.72558,9.72558,0,0,0,43.02087,20.051l5.73407-5.18726A4.31967,4.31967,0,0,0,51.17664,15.5918ZM41.42249,26.1427A8.7671,8.7671,0,0,1,32.94,33.81586a6.72561,6.72561,0,0,1-6.792-7.67316A8.76734,8.76734,0,0,1,34.63043,18.469,6.726,6.726,0,0,1,41.42249,26.1427Z" style="fill-rule:evenodd"/></g><path d="M50.5,29a4.97664,4.97664,0,0,0-3.47345,1.41327l-4.07867-1.97192a10.972,10.972,0,0,0-1.4765-9.79236l5.408-5.408a4.96114,4.96114,0,1,0-1.973-2.27008l-5.4845,5.4845a10.98826,10.98826,0,0,0-16.10455,2.49493L12.43079,13.687A4.94921,4.94921,0,0,0,12.5,13a5.03381,5.03381,0,1,0-1.35175,3.39886L22.02112,21.6557a10.98472,10.98472,0,0,0,1.93439,10.26593l-12.378,12.378a4.55395,4.55395,0,1,0,2.29645,1.947L26.14911,33.97131a10.93815,10.93815,0,0,0,6.35077,2.02856c.26764,0,.53-.02124.79285-.04l2.32965,8.69458a4.5,4.5,0,1,0,2.89777-.77655l-2.28857-8.54108A11.04571,11.04571,0,0,0,41.619,31.13092l3.97638,1.92255A4.99727,4.99727,0,1,0,50.5,29ZM32.49988,32.99957A8,8,0,1,1,40.5,24.99976,7.99986,7.99986,0,0,1,32.49988,32.99957Z" style="fill:#fff;fill-rule:evenodd"/><path d="M71.499,32.24316V26.40479H66.15674a11.83247,11.83247,0,0,1-2.22168,6.33447q-.47754-.60645-1.083-1.26758a9.85353,9.85353,0,0,0,1.61572-3.74512,29.882,29.882,0,0,0,.40381-5.61768v-6.5542H79.83447v14.5957q0,2.18408-2.07471,2.18457-1.26709,0-2.8457-.05469-.09155-.60645-.27539-1.52441,1.59741.1106,2.58887.11035,1.13818,0,1.13818-1.083V26.40479H72.96777v5.83838ZM66.25781,25.083H71.499V21.6499H66.34033A30.15259,30.15259,0,0,1,66.25781,25.083Zm.08252-8.16992v3.415H71.499v-3.415Zm12.02539,0H72.96777v3.415h5.39795ZM72.96777,25.083h5.39795V21.6499H72.96777Z" style="fill:#fff"/><path d="M89.23438,15.05859l1.32178-.78906q.8811,1.0459,1.74414,2.27637l-.8999.56934h6.84814V25.248H96.77979v-.95459H85.186a14.45442,14.45442,0,0,1-2.72656,8.4458q-.49585-.60645-1.06494-1.21191,2.35034-2.8645,2.3501-8.59229V17.11523H90.749A23.24811,23.24811,0,0,0,89.23438,15.05859Zm-4.021,3.37842v4.53467H96.77979V18.437Z" style="fill:#fff"/><path d="M102.875,25.083q1.87207-.23877,3.91016-.49561-.07324.78955-.127,1.24854-2.71875.34863-5.45312.75244l-.29395-1.34033a14.60383,14.60383,0,0,0,2.8916-3.80029q-2.01855.12891-3.02.22021l-.36719-1.21143a24.04355,24.04355,0,0,0,3.13916-5.91162l1.48633.51367q-1.59668,3.011-3.00977,5.2876,1.51465-.00879,2.42383-.03662.73242-1.3125,1.56055-2.95605l1.41211.62451A74.36668,74.36668,0,0,1,102.875,25.083Zm-2.313,4.14941q2.66089-.49585,6.38916-1.32227-.07324.84521-.07422,1.39551-3.81738.78955-5.91064,1.32178Zm5.32471,2.36816V30.27881h2.18359V15.57275H116.957V30.27881h1.61523v1.32178Zm9.67578-14.70605h-6.0957v3.61719h6.0957ZM109.4668,25.395h6.0957v-3.6167h-6.0957Zm0,4.88379h6.0957v-3.6167h-6.0957Z" style="fill:#fff"/><path d="M119.124,29.67285q2.644-.53247,6.22363-1.39551-.05566.9917-.05469,1.35889-3.87451.91772-5.76562,1.45068Zm2.36816-4.22266q2.07422-.2937,3.709-.56934-.11133.71631-.166,1.39551-2.49609.36694-5.21387.80762l-.29395-1.3584a24.00143,24.00143,0,0,0,2.73633-3.84619q-1.64355.09155-2.75391.21094l-.34961-1.24854a31.6837,31.6837,0,0,0,3.48828-6.499l1.39551.55078q-1.78125,3.48853-3.249,5.83838,1.20117-.01831,2.166-.05518.68848-1.21143,1.4502-2.66211l1.377.606Q123.49268,22.62256,121.49219,25.4502Zm7.17871.71582,1.33984.80811a43.59806,43.59806,0,0,1-4.53418,5.63623,13.34352,13.34352,0,0,0-1.21191-.99121A26.43087,26.43087,0,0,0,128.6709,26.166Zm-2.332-10.51953h9.80371v9.91406h-1.41309V24.53223h-6.97656v1.02832h-1.41406Zm8.39063,1.28516h-6.97656v6.31543h6.97656Zm-2.55176,10.1709,1.21094-.86279q2.03906,2.387,4.18652,5.08545l-1.34082.99121Q134.27,29.63647,132.17773,27.10254Z" style="fill:#fff"/><path d="M145.72656,30.499l5.37891.11035,5.06738-.20215q-.312.75293-.58789,1.46875l-5.4707.03711-4.7002-.05566a5.21415,5.21415,0,0,1-4.3877-2.12939,19.08338,19.08338,0,0,0-2.31348,2.40479l-.78906-1.56055q.04541-.05493,2.44141-2.09277V22.21875h-2.34961v-1.3584H141.834v7.876A4.84308,4.84308,0,0,0,145.72656,30.499Zm-5.76465-15.91748q1.41357,1.70728,2.79,3.5249l-1.30371.88135q-1.229-1.83618-2.60645-3.59863Zm10.35449,9.05127,1.15625-.73437q2.07422,2.71729,3.67188,5.23242l-1.32129.89941q-.41309-.69727-.84473-1.39551-5.21484.33105-7.47266.62451a7.99933,7.99933,0,0,0-1.30371.312l-.67871-1.32178a4.73544,4.73544,0,0,0,1.19336-1.17529,38.45337,38.45337,0,0,0,2.46-4.3877H143.2666V20.291h12.57617v1.39551H148.9209q-1.58789,2.91943-3.06641,5.12207,2.79053-.16479,6.34375-.40381Q151.28857,25.00073,150.31641,23.63281Zm-5.82031-8.07812h10.28125v1.395H144.49609Z" style="fill:#fff"/><path d="M167.99609,14.43457h1.33984v1.50537h5.50781v1.21191h-5.50781v1.10156h-1.33984V17.15186h-4.35156v1.10156h-1.33984V17.15186h-5.43457V15.93994h5.43457V14.43457h1.33984v1.50537h4.35156ZM157.4209,18.749h16.81738v3.35986h-1.39551V19.96094H158.81641v2.14795H157.4209Zm1.542,8.2251h13.7334v5.59912h-1.39551v-.918H160.3584v.918h-1.39551Zm1.32227-5.65479H171.374v4.58984h-1.39551v-.42236h-8.29785v.42236h-1.39551Zm11.01563,6.793H160.3584v2.40527h10.94238Zm-1.32227-5.65479h-8.29785v1.89111h8.29785Z" style="fill:#fff"/><path d="M175.72559,24.40381h8.13281V16.72949h-7.30664V15.31592h16.22949v1.41357h-7.38086v7.67432h8.18848v1.41357h-8.18848v6.75586h-1.542V25.81738h-8.13281ZM177.4873,18.749l1.15723-.80762a48.44388,48.44388,0,0,1,3.543,4.64453l-1.30371.97314A51.19059,51.19059,0,0,0,177.4873,18.749Zm9.3457,3.81885a30.07123,30.07123,0,0,0,3.63477-4.7002l1.377.88135a51.62227,51.62227,0,0,1-3.874,4.77344Z" style="fill:#fff"/><path d="M207.28516,16.85791q2.88135,2.68066,5.45215,5.48975l-1.30371,1.083q-.73389-.86279-1.48633-1.69824-8.24414.34863-12.59473.59668a12.3783,12.3783,0,0,0-1.94629.29395l-.60547-1.5791a5.34615,5.34615,0,0,0,1.52344-.86279,36.67722,36.67722,0,0,0,5.74609-5.93018l1.377.84473a48.99106,48.99106,0,0,1-5.74609,5.74609q5.62646-.17432,11.07031-.40381-1.25684-1.36743-2.55176-2.66211Zm2.69824,7.28857v8.335h-1.50488V31.27051H198.38086v1.21094H196.875v-8.335Zm-1.50488,1.35889H198.38086v4.44287h10.09766Z" style="fill:#fff"/><g style="opacity:0.30000000000000004"><path d="M70.7168,45.46777q0,3.52734-3.20117,3.52832-3.06665,0-3.06689-3.40527V40.53613h1.07422V45.542q0,2.499,2.09473,2.498,2.02515,0,2.0249-2.417V40.53613H70.7168Z" style="fill:#fff"/><path d="M72.2959,47.57324a2.86884,2.86884,0,0,0,1.71338.57422q1.22974,0,1.23-.80566a.70293.70293,0,0,0-.26855-.56641,4.22334,4.22334,0,0,0-1.09033-.5293,3.10906,3.10906,0,0,1-1.28369-.78711,1.51424,1.51424,0,0,1-.29541-.94238,1.477,1.477,0,0,1,.66895-1.26465,2.76314,2.76314,0,0,1,1.646-.47559,3.70706,3.70706,0,0,1,1.40723.26367v1.01465a2.72591,2.72591,0,0,0-1.50928-.42969,1.4133,1.4133,0,0,0-.82178.21973.67717.67717,0,0,0-.31689.58008.6958.6958,0,0,0,.22852.55371,4.05421,4.05421,0,0,0,1.01221.51074,3.41429,3.41429,0,0,1,1.34277.76758,1.43453,1.43453,0,0,1,.34912.98242,1.4894,1.4894,0,0,1-.66895,1.28711,2.94427,2.94427,0,0,1-1.73193.46973,3.52015,3.52015,0,0,1-1.61133-.34863Z" style="fill:#fff"/><path d="M82.56006,46.15527H78.40283a2.13863,2.13863,0,0,0,.521,1.46875,1.81553,1.81553,0,0,0,1.38037.51758,2.94158,2.94158,0,0,0,1.83154-.63867v.93945a3.53386,3.53386,0,0,1-2.07861.55371,2.54791,2.54791,0,0,1-2.01172-.81641,3.30345,3.30345,0,0,1-.72217-2.2666,3.24715,3.24715,0,0,1,.79248-2.25,2.52983,2.52983,0,0,1,1.96826-.88672,2.29344,2.29344,0,0,1,1.8208.749,3.08385,3.08385,0,0,1,.65527,2.09766Zm-1.05273-.84375a1.8843,1.8843,0,0,0-.38135-1.24609,1.31454,1.31454,0,0,0-1.05811-.44043,1.47223,1.47223,0,0,0-1.08789.46777,2.16445,2.16445,0,0,0-.57715,1.21875Z" style="fill:#fff"/><path d="M87.147,43.958a1.23,1.23,0,0,0-.7251-.1875,1.19,1.19,0,0,0-1.00977.57129,2.59069,2.59069,0,0,0-.39746,1.50684v3.00781H83.96191V42.916h1.05273v1.208h.02148a1.62488,1.62488,0,0,1,1.55762-1.31055,1.491,1.491,0,0,1,.55322.08105Z" style="fill:#fff"/><path d="M91.01953,45.9502a3.203,3.203,0,0,1,.82178-2.32227,2.95457,2.95457,0,0,1,2.229-.85156,2.71993,2.71993,0,0,1,2.09717.81934,3.66733,3.66733,0,0,1-.05078,4.53613,2.8403,2.8403,0,0,1-2.17529.86426,2.79326,2.79326,0,0,1-2.127-.83789A3.07555,3.07555,0,0,1,91.01953,45.9502Zm1.07422-.03125a2.36707,2.36707,0,0,0,.51807,1.61621,1.76264,1.76264,0,0,0,1.394.59082,1.67416,1.67416,0,0,0,1.375-.57715,3.15531,3.15531,0,0,0,0-3.32227,1.67027,1.67027,0,0,0-1.375-.58008,1.73529,1.73529,0,0,0-1.39893.60645A2.50024,2.50024,0,0,0,92.09375,45.91895Z" style="fill:#fff"/><path d="M101.5957,43.958a1.23368,1.23368,0,0,0-.72559-.1875,1.19,1.19,0,0,0-1.00977.57129,2.59069,2.59069,0,0,0-.39746,1.50684v3.00781H98.41016V42.916h1.05273v1.208h.02148a1.62488,1.62488,0,0,1,1.55762-1.31055,1.49563,1.49563,0,0,1,.55371.08105Z" style="fill:#fff"/><path d="M107.61035,48.35645q0,3.29883-3.20117,3.29883a4.20482,4.20482,0,0,1-1.92187-.41406V50.22559a3.91963,3.91963,0,0,0,1.90625.55371q2.165,0,2.16406-2.27734V47.874h-.02148a2.38747,2.38747,0,0,1-3.80762.32227,3.19648,3.19648,0,0,1-.6709-2.12207,3.645,3.645,0,0,1,.74023-2.40918,2.4431,2.4431,0,0,1,1.97656-.88867,1.91964,1.91964,0,0,1,1.76172.94531h.02148V42.916h1.05273Zm-1.05273-3.03418a1.64182,1.64182,0,0,0-.46094-1.18164,1.52414,1.52414,0,0,0-1.15039-.49414,1.58049,1.58049,0,0,0-1.33691.63086,2.81018,2.81018,0,0,0-.47754,1.73242,2.39861,2.39861,0,0,0,.46094,1.53027,1.4836,1.4836,0,0,0,1.22461.58594,1.59643,1.59643,0,0,0,1.25781-.55859,2.05416,2.05416,0,0,0,.48242-1.418Z" style="fill:#fff"/><path d="M109.63086,43.3291a3.78468,3.78468,0,0,1,2.0459-.55273q2.14893,0,2.14844,2.25586v3.82422h-1.042v-.918h-.02734a1.98427,1.98427,0,0,1-1.82031,1.05762,1.953,1.953,0,0,1-1.375-.46777,1.62524,1.62524,0,0,1-.50977-1.26172q0-1.66553,1.9707-1.93945l1.76172-.24609q0-1.45605-1.20312-1.45605a3.00825,3.00825,0,0,0-1.94922.71973Zm1.76172,2.73438a1.8071,1.8071,0,0,0-1.00781.36523.99826.99826,0,0,0-.27637.752.88878.88878,0,0,0,.30078.69336,1.15,1.15,0,0,0,.79492.26758,1.47585,1.47585,0,0,0,1.13379-.48242,1.72461,1.72461,0,0,0,.44531-1.21484V45.876Z" style="fill:#fff"/><path d="M120.59277,48.85645h-1.04785V45.47754q0-1.83105-1.33691-1.83105a1.43762,1.43762,0,0,0-1.13867.51563,1.92566,1.92566,0,0,0-.44629,1.30566v3.38867h-1.05273V42.916H116.623v.9834h.02148a2.14353,2.14353,0,0,1,1.9502-1.123,1.80763,1.80763,0,0,1,1.4873.626,2.82116,2.82116,0,0,1,.51074,1.82324Z" style="fill:#fff"/><path d="M122.21973,40.82129a.652.652,0,0,1,.66113-.66016.66942.66942,0,0,1,.48047.1875.627.627,0,0,1,.19629.47266.613.613,0,0,1-.19629.46484.676.676,0,0,1-.48047.18555.648.648,0,0,1-.47266-.18555A.62793.62793,0,0,1,122.21973,40.82129Zm.124,8.03516V42.916h1.05273v5.94043Z" style="fill:#fff"/><path d="M129.45508,48.85645h-4.93164v-.34961l3.4541-4.7207H124.8457V42.916h4.63086v.34375l-3.43262,4.72656h3.41113Z" style="fill:#fff"/><path d="M130.8252,43.3291a3.78468,3.78468,0,0,1,2.0459-.55273q2.14893,0,2.14844,2.25586v3.82422h-1.042v-.918h-.02734a1.98427,1.98427,0,0,1-1.82031,1.05762,1.953,1.953,0,0,1-1.375-.46777,1.62524,1.62524,0,0,1-.50977-1.26172q0-1.66553,1.9707-1.93945l1.76172-.24609q0-1.45605-1.20312-1.45605a3.00825,3.00825,0,0,0-1.94922.71973Zm1.76172,2.73438a1.8071,1.8071,0,0,0-1.00781.36523.99826.99826,0,0,0-.27637.752.88878.88878,0,0,0,.30078.69336,1.15,1.15,0,0,0,.79492.26758,1.47585,1.47585,0,0,0,1.13379-.48242,1.72461,1.72461,0,0,0,.44531-1.21484V45.876Z" style="fill:#fff"/><path d="M139.61719,48.79785a1.94847,1.94847,0,0,1-.92871.1875q-1.59668,0-1.5957-1.76758V43.78613h-1.02051V42.916h1.02051V41.4873l1.04688-.333V42.916h1.47754v.87012h-1.47754v3.24414a1.368,1.368,0,0,0,.19922.83789.792.792,0,0,0,.66016.252.9959.9959,0,0,0,.61816-.19824Z" style="fill:#fff"/><path d="M140.73438,40.82129a.652.652,0,0,1,.66113-.66016.66942.66942,0,0,1,.48047.1875.627.627,0,0,1,.19629.47266.613.613,0,0,1-.19629.46484.676.676,0,0,1-.48047.18555.648.648,0,0,1-.47266-.18555A.62793.62793,0,0,1,140.73438,40.82129Zm.124,8.03516V42.916h1.05273v5.94043Z" style="fill:#fff"/><path d="M143.39355,45.9502a3.20272,3.20272,0,0,1,.82129-2.32227,2.955,2.955,0,0,1,2.22949-.85156,2.721,2.721,0,0,1,2.09668.81934,3.66554,3.66554,0,0,1-.05078,4.53613,2.84066,2.84066,0,0,1-2.1748.86426,2.7918,2.7918,0,0,1-2.127-.83789A3.07346,3.07346,0,0,1,143.39355,45.9502Zm1.07422-.03125a2.36446,2.36446,0,0,0,.51758,1.61621,1.763,1.763,0,0,0,1.39453.59082,1.6748,1.6748,0,0,0,1.375-.57715,3.15531,3.15531,0,0,0,0-3.32227,1.67092,1.67092,0,0,0-1.375-.58008,1.735,1.735,0,0,0-1.39941.60645A2.50272,2.50272,0,0,0,144.46777,45.91895Z" style="fill:#fff"/><path d="M155.80566,48.85645h-1.04785V45.47754q0-1.83105-1.33691-1.83105a1.43762,1.43762,0,0,0-1.13867.51563,1.92566,1.92566,0,0,0-.44629,1.30566v3.38867H150.7832V42.916h1.05273v.9834h.02148a2.14353,2.14353,0,0,1,1.9502-1.123,1.80763,1.80763,0,0,1,1.4873.626,2.82116,2.82116,0,0,1,.51074,1.82324Z" style="fill:#fff"/><path d="M160.41992,45.9502a3.20272,3.20272,0,0,1,.82129-2.32227,2.955,2.955,0,0,1,2.22949-.85156,2.721,2.721,0,0,1,2.09668.81934,3.66554,3.66554,0,0,1-.05078,4.53613,2.84066,2.84066,0,0,1-2.1748.86426,2.7918,2.7918,0,0,1-2.127-.83789A3.07346,3.07346,0,0,1,160.41992,45.9502Zm1.07422-.03125a2.36446,2.36446,0,0,0,.51758,1.61621,1.763,1.763,0,0,0,1.39453.59082,1.6748,1.6748,0,0,0,1.375-.57715,3.15531,3.15531,0,0,0,0-3.32227,1.67092,1.67092,0,0,0-1.375-.58008,1.735,1.735,0,0,0-1.39941.60645A2.50272,2.50272,0,0,0,161.49414,45.91895Z" style="fill:#fff"/><path d="M168.8623,48.01855v3.57227h-1.05273V42.916h1.05273v1.02637h.02148a2.24135,2.24135,0,0,1,2.041-1.166,2.17255,2.17255,0,0,1,1.78613.79785,3.29386,3.29386,0,0,1,.64746,2.13965,3.65371,3.65371,0,0,1-.7334,2.38281,2.41309,2.41309,0,0,1-1.97363.89941,1.98162,1.98162,0,0,1-1.76758-.97754Zm-.00488-1.61133a1.71164,1.71164,0,0,0,.46777,1.22168,1.64107,1.64107,0,0,0,2.48047-.14746,2.96175,2.96175,0,0,0,.47266-1.7832,2.33874,2.33874,0,0,0-.43945-1.50684,1.46505,1.46505,0,0,0-1.20312-.54492,1.64748,1.64748,0,0,0-1.2793.55371,2.03709,2.03709,0,0,0-.499,1.418Z" style="fill:#fff"/><path d="M179.6748,46.15527h-4.15723a2.13843,2.13843,0,0,0,.52051,1.46875,1.81739,1.81739,0,0,0,1.38086.51758,2.94393,2.94393,0,0,0,1.832-.63867v.93945a3.53549,3.53549,0,0,1-2.0791.55371,2.54722,2.54722,0,0,1-2.01172-.81641,3.30329,3.30329,0,0,1-.72168-2.2666,3.24683,3.24683,0,0,1,.792-2.25,2.531,2.531,0,0,1,1.96777-.88672,2.29311,2.29311,0,0,1,1.82129.749,3.08633,3.08633,0,0,1,.65527,2.09766Zm-1.05273-.84375a1.88954,1.88954,0,0,0-.38086-1.24609,1.31557,1.31557,0,0,0-1.05859-.44043,1.47223,1.47223,0,0,0-1.08789.46777,2.1676,2.1676,0,0,0-.57715,1.21875Z" style="fill:#fff"/><path d="M184.26172,43.958a1.23039,1.23039,0,0,0-.72461-.1875,1.18942,1.18942,0,0,0-1.00977.57129,2.58712,2.58712,0,0,0-.39844,1.50684v3.00781h-1.05273V42.916h1.05273v1.208h.02148a1.62548,1.62548,0,0,1,1.55859-1.31055,1.48989,1.48989,0,0,1,.55273.08105Z" style="fill:#fff"/><path d="M185.417,43.3291a3.78468,3.78468,0,0,1,2.0459-.55273q2.14893,0,2.14844,2.25586v3.82422h-1.042v-.918H188.542a1.98427,1.98427,0,0,1-1.82031,1.05762,1.953,1.953,0,0,1-1.375-.46777,1.62524,1.62524,0,0,1-.50977-1.26172q0-1.66553,1.9707-1.93945l1.76172-.24609q0-1.45605-1.20312-1.45605a3.00825,3.00825,0,0,0-1.94922.71973Zm1.76172,2.73438a1.8071,1.8071,0,0,0-1.00781.36523.99826.99826,0,0,0-.27637.752.88878.88878,0,0,0,.30078.69336,1.15,1.15,0,0,0,.79492.26758,1.47585,1.47585,0,0,0,1.13379-.48242,1.72461,1.72461,0,0,0,.44531-1.21484V45.876Z" style="fill:#fff"/><path d="M194.209,48.79785a1.94847,1.94847,0,0,1-.92871.1875q-1.59668,0-1.5957-1.76758V43.78613h-1.02051V42.916h1.02051V41.4873l1.04688-.333V42.916H194.209v.87012h-1.47754v3.24414a1.368,1.368,0,0,0,.19922.83789.792.792,0,0,0,.66016.252.9959.9959,0,0,0,.61816-.19824Z" style="fill:#fff"/><path d="M195.32617,40.82129a.652.652,0,0,1,.66113-.66016.66942.66942,0,0,1,.48047.1875.627.627,0,0,1,.19629.47266.613.613,0,0,1-.19629.46484.676.676,0,0,1-.48047.18555.648.648,0,0,1-.47266-.18555A.62793.62793,0,0,1,195.32617,40.82129Zm.124,8.03516V42.916h1.05273v5.94043Z" style="fill:#fff"/><path d="M197.98535,45.9502a3.20272,3.20272,0,0,1,.82129-2.32227,2.955,2.955,0,0,1,2.22949-.85156,2.721,2.721,0,0,1,2.09668.81934,3.66554,3.66554,0,0,1-.05078,4.53613,2.84066,2.84066,0,0,1-2.1748.86426,2.7918,2.7918,0,0,1-2.127-.83789A3.07346,3.07346,0,0,1,197.98535,45.9502Zm1.07422-.03125a2.36446,2.36446,0,0,0,.51758,1.61621,1.763,1.763,0,0,0,1.39453.59082,1.6748,1.6748,0,0,0,1.375-.57715,3.15531,3.15531,0,0,0,0-3.32227,1.67092,1.67092,0,0,0-1.375-.58008,1.735,1.735,0,0,0-1.39941.60645A2.50272,2.50272,0,0,0,199.05957,45.91895Z" style="fill:#fff"/><path d="M210.39746,48.85645h-1.04785V45.47754q0-1.83105-1.33691-1.83105a1.43762,1.43762,0,0,0-1.13867.51563,1.92566,1.92566,0,0,0-.44629,1.30566v3.38867H205.375V42.916h1.05273v.9834h.02148a2.14353,2.14353,0,0,1,1.9502-1.123,1.80763,1.80763,0,0,1,1.4873.626,2.82116,2.82116,0,0,1,.51074,1.82324Z" style="fill:#fff"/></g></svg>