<svg xmlns="http://www.w3.org/2000/svg" viewBox="0 0 830 45"><title>logo_title</title><path d="M683.54,11.23h-13v5h13a7.49,7.49,0,0,1,0,14.95h-13v5h13a12.48,12.48,0,0,0,0-24.95Zm-43,5h25v-5h-25ZM829.19,18.9l.37-3.57h-5.69l.18-4.11h-4.77l-.37,4.11h-1.47a3.15,3.15,0,0,0-2,1.07l1.47-3.75h-4.59s-1.09,3.85-1.28,4.64a1.07991,1.07991,0,0,1-.73.89h-1.47l.37,3.57h2.57c2.6,0,2.94-2.86,2.94-2.86h3.85l-.73,7.68h-8.26l-.37,3.39h8.26l-.55,6.07h5l.55-6.07h6.24l.37-3.39h-6.24l.73-7.68ZM640.54,26.21h25v-5h-25Zm-10-2h0a7.49,7.49,0,0,1-14.95,0h0v-13h-5v13h0a12.48,12.48,0,0,0,24.95,0h0v-13h-5Zm176.81-4.26v-.54l3.3-8.21h-5l-2.2,5.89a1.17008,1.17008,0,0,1-.73.89h-1.47l.18,3.57h1.28l-1.28,14.46h5l1.47-15.18A1.08005,1.08005,0,0,0,807.35,19.95Zm-60.2-5.18h18.54l-.18.89h5l.37-3.57H759.04V11.2h-4.77v.89h-4.59a3.28006,3.28006,0,0,0-2.39,1.07V12.09h-4.77l-.3299,3.62h5ZM640.54,36.21h25v-5h-25ZM791.93,14.05l1.1-2.86h-5l-1.47,4.64a1.88007,1.88007,0,0,1-.92.89h-.92l.37,3.39h3.12a2.78,2.78,0,0,0,1.65-.89l1.28-2.86h4.59l-.37,5.18h3.85l.73-8.57h-6.06A3.24,3.24,0,0,0,791.93,14.05Zm5.14,18-1.1-8.93H793.4l1.1-3.39h-5l-3.63,12.18a1.17994,1.17994,0,0,1-.92.71h-1.84l.37,3.39h4.22a2.29,2.29,0,0,0,1.65-1.07l2.2-6.43.92,5.36a3.00006,3.00006,0,0,0,1.84,2.14h4l.37-3.39h-1.1c-.35.01-.54-.53-.54-.53ZM742.92,18.16h26.25l.18-1.79H743.11Zm4.59,2,.18-1.07h-4.77l-.55,6.25h24a2.33,2.33,0,0,0,2.2-1.61l.55-4.64H749.53a3.47994,3.47994,0,0,0-2.02,1.04Zm16.33,2.32a.48.48,0,0,1-.37.36h-16l.18-1.25h16.15ZM746.77,27.3l.18-1.07h-5l-.91,9.79h24.59a2.29,2.29,0,0,0,2.2-1.61l.73-8.21h-20a2.39,2.39,0,0,0-1.78,1.07Zm5.51,6.07s-.06.18-.18.18h-4.22a2.40991,2.40991,0,0,0-1.65,1.25l.18-2.5h5.87Zm5.33-4.66h5.87v.89s0,.13-.18.18h-5.69Zm-.37,3.57h5.87v.89s0,.29-.37.36h-5.5Zm-4.77-2.5h-4.22s-1.33.28-1.65,1.25l.18-2.32h5.87Zm-28.63-15h16.89l.18-3H724.04Zm57.26-1.61c-1.49,0-1.91.78-2,1l1.08-3h-3.85l-.92,2h-2.75L772.29,16.71h1.65l-2.57,5.54L771.19,26h5.32l-.18,2.32h-5.51l-.37,3.57h5.51L775.59,36h4.77l.37-4.11H784.04l.18-3.57H781.1l.18-2.32h3.12l.37-3.39h-3.12l.37-4.46h-4.77l-.37,4.46h-1.65v-.36L777.8,16.71h7l.37-3.57Zm-51.76,3.54.18-1.07h-5.14l-.55,7.32h12.85c2.51-.1,2.75-1.79,2.75-1.79l.55-5.54h-8.81A2.99993,2.99993,0,0,0,729.34,16.71Zm5.32,2.86a.57009.57009,0,0,1-.37.36h-5.14l.18-1.43h5.32Zm-7.53,5.36V23.71h-3.85l-.37,4.82s-.43-.06-.55-1.07l-.32-5.75h-3v-.54l3.85-5,.18-2.86H720.5l.18-2h-5l-.18,2h-2.86l-.18,3.57h4.4l-2.57,3.57s-.58.95-1.28,1.07h-1.47l.37,3.57h1.84l-1.1,11.07h5l1.1-11.25.73,5.71a1.44,1.44,0,0,0,1.47,1.25h1.65l-.37,4.29H736s2.52.06,2.57-3.75l.73-8.75h-9.96s-1.78.32-2.2,1.29Zm.73,8.39s-1.22.31-1.47.89l.18-2.68h1.47Zm.55-5s-1.36993.39-1.64,1.09l.37-2.7h1.47ZM733.56,26.71h1.48l-.18,1.79h-1.47Zm-.37,4.82h1.28v1.43s-.07.36-.37.36H733.04Z" style="fill:#fff"/><path d="M13.48,22.71C13.48,10.38,18.17.38,23.95.38c2.92,0,5.56,2.55,7.46,6.67l-1.94.5a2.64,2.64,0,0,0-1.85-.84c-1.66,0-3,2-4,5.05a38.84,38.84,0,0,0-1.39,11c0,8.32,2,15.07,4.41,15.07,1.79,0,3.33-3.63,4-8.85l3.43-.89c-1.12,9.76-5.25,17-10.17,17C18.17,45.07,13.48,35.07,13.48,22.71Z" style="fill:#fff"/><path d="M.17,18.37C-1.14,13.1,5.23,6.82,15.04,3.09L15.53,5c-5.76,2.43-9.39,5.91-8.68,8.71.91,3.67,8.73,4.88,17.45,2.7S39.3,9.5,38.44,5.83c-.4-1.62-2.15-2.76-4.72-3.34L33.04,0c7.12.32,12.43,2.77,13.44,6.82,1.55,6.2-7.57,13.82-20.36,17S1.72,24.57.17,18.37Z" style="fill:#fff"/><path d="M150.92,40.81h-1.88v-4l-2.9,4h-1.1l-2.69-4v4h-1.47v-7h1.57l3.53,5.1,3.61-5.1h1.37Zm-11.24-3.66a3.36,3.36,0,0,0-1-2.47,3.81,3.81,0,0,0-2.84-1,4,4,0,0,0-2.92,1,3.29,3.29,0,0,0-1,2.48v.4a3,3,0,0,0,1.07,2.5,4.92,4.92,0,0,0,5.58,0,3.06,3.06,0,0,0,1.07-2.53Zm-2.54,2.2a1.5,1.5,0,0,1-1.32.58c-.74,0-1.21-.18-1.42-.54a4.39991,4.39991,0,0,1-.31-2v-.17a4.09,4.09,0,0,1,.34-2,1.49,1.49,0,0,1,1.38-.55c.75,0,1.22.2,1.43.62a4.69984,4.69984,0,0,1,.3,1.92v.19A3.4401,3.4401,0,0,1,137.14,39.35Zm-6.1,1.27a3.40982,3.40982,0,0,1-.79.2,7.74991,7.74991,0,0,1-1.33.1,5.14,5.14,0,0,1-3.1-.87,3,3,0,0,1-1.2-2.56V37.2a3.05,3.05,0,0,1,1.19-2.49,4.79,4.79,0,0,1,3.06-1,10.28,10.28,0,0,1,1.32.07,3.39,3.39,0,0,1,.83.19v1.09a3.66009,3.66009,0,0,0-.73-.19,6.36975,6.36975,0,0,0-1.07-.08,2.4,2.4,0,0,0-1.79.66,2.54,2.54,0,0,0-.64,1.84v.1a2.52,2.52,0,0,0,.6,1.85,2.22,2.22,0,0,0,1.64.6,5.64,5.64,0,0,0,1.2-.11,7.65144,7.65144,0,0,0,.79-.2Zm-7.31.19h-6v-7h5.73v1h-3.62v1.9h2.8V37.8h-2.8v1.94h3.87Zm-7.39,0h-5.62v-7h2.11v6h3.5Zm-6.92,0h-6v-7h5.73v1h-3.62v1.9h2.8V37.8h-2.8v1.94h3.87Zm-7-6h-2v6H98.31v-6H96.22v-1h6.25ZM87.31,38.08l1.08-2.6,1.18,2.6Zm2.3-4.32h-2l-3.17,7h1.73l.71-1.67h3.16l.69,1.67h2.16Zm-6,7h-.87l-4.7-4.35v4.4h-1.5v-7h1.13l4.49,4.18V33.81h1.5Zm-9.21,0H72.32v-7h2.12Zm-4.32,0H68.04v-3H65.58v3H63.47v-7h2.11v2.95h2.46v-2.9h2.12Zm-8.04-.14a3.39,3.39,0,0,1-.79.2,7.7399,7.7399,0,0,1-1.33.1,5.13,5.13,0,0,1-3.1-.87,3,3,0,0,1-1.2-2.56V37.2a3.05,3.05,0,0,1,1.22-2.49,4.77,4.77,0,0,1,3.05-1,10.41,10.41,0,0,1,1.32.07,3.3,3.3,0,0,1,.82.19v1.09a3.59988,3.59988,0,0,0-.72-.19,6.39025,6.39025,0,0,0-1.07-.08,2.38,2.38,0,0,0-1.79.66,2.53,2.53,0,0,0-.65,1.84v.1a2.53,2.53,0,0,0,.6,1.85,2.23,2.23,0,0,0,1.64.6,5.66,5.66,0,0,0,1.2-.11,7.48907,7.48907,0,0,0,.79-.2Zm49.43-20.67v.19c0,.06-.22.23-.25.37a3.30014,3.30014,0,0,0-.57.14,5.4201,5.4201,0,0,0-1.16.54c0,.06-.16.11-.2.17h0s.16-.51.18-.67-.09-.24-.08-.39.11-.24.14-.38a1.44321,1.44321,0,0,0,0-.36,4.99948,4.99948,0,0,1,.31-.86l.15-.35h0a1.81657,1.81657,0,0,0,.65-.24l.53-.13h0a1.25,1.25,0,0,1,.49.19C112.04,18.47,111.59,19.55,111.47,19.95Zm4.82-8c0-.29.68-.51.68-.51.3-.14.63-.2.94-.31a.84.84,0,0,0,.41-.22,3.09,3.09,0,0,1,1.06-.2,6.05981,6.05981,0,0,0,1.16.28v.15c.07.13.09.22.21.3v.27c0,.22-.23.33-.31.51-.11,0-.26-.08-.34,0h-.08a10.39981,10.39981,0,0,1-2,1l-.57.06a.69.69,0,0,0-.25,0c-.33.08-1.13,0-1.22-.37-.05-.2.06-.92.31-.95Zm3.2,4.81a1.18016,1.18016,0,0,0-.2.34,4.57992,4.57992,0,0,1-1.26.73c-.44.33-1.13.65-1.62.26a1.89957,1.89957,0,0,1-.17-.53.74.74,0,0,0,.09-.42,1.12986,1.12986,0,0,1,0-.55l.37-.39a4.07016,4.07016,0,0,1,.86-.47,4.33,4.33,0,0,1,2-.55.24.24,0,0,1,.14.34,12.24177,12.24177,0,0,0-.22,1.25Zm7.05,8.77v-.2c-.2-.16-.14-.14-.23,0V25.1s0-.06-.08,0v.08h-.08v-.11l-.09-.11h0l.15-.09v-.09a.59007.59007,0,0,0-.2.2l.03-.27h.12s.05,0,0-.06c-.31,0-.15-.38-.31-.06l-.08.09s0-.06-.06,0a.6499.6499,0,0,0,0-.19.58.58,0,0,1-.23-.07s.12-.07.14-.08l-.08-.05V24.2h0l.11.06h0l-.14-.14h-.06l-.11-.17h-.14V24h.11a.53016.53016,0,0,1,0,.23h-.05l-.17-.28h-.15l.15-.12h.05c-.15-.09-.42-.11-.48.09l-.17.09s-.07,0-.08.05l-.45.31a7.12966,7.12966,0,0,0-.93.29,13.07993,13.07993,0,0,0-2.81.7l-.47.07a17.91,17.91,0,0,0-2.52.27,2.27,2.27,0,0,0-.68-.23c-.17,0-.19-.25-.26-.37-.76-1.53-.54-1.27.29-2.3a1.80974,1.80974,0,0,1,.4-.37c.49-.34.91,0,1.1-.21a2.13872,2.13872,0,0,0,.56-.11,1.74393,1.74393,0,0,0,.34-.18c.11-.05.65,0,.9-.17a3.29443,3.29443,0,0,1,.4-.11c.61-.09,1.17-.08,1.78-.22.12,0,.4-.4.43-.51a3.83247,3.83247,0,0,1,.33-.49c.08-.13.41-.32.46-.63a2.21114,2.21114,0,0,0,0-.4,3.22127,3.22127,0,0,1,.11-.5c.08-.36-.8-1.39-.79-1.75,0-.15.76-1.91.76-1.91.06-.15.13-.85.32-.89,0-.08.14-.49.14-.54,0-.42.26-.74.26-1.13,0-.15-.11-.31-.1-.48s.08-.21.08-.34c0-.28-.27-.48-.26-.76l-.43-.6c-.46-.66,0-1.1-1.07-1.52,0,.07-.11.06-.13.06-.43,0-.69-.53-1.34-.4-.27.06-.56-.13-.79-.11a24.66091,24.66091,0,0,0-3,1.52,1.16,1.16,0,0,1-.44,0h0c0-1.41,1.07-2.73-.73-3.57a2.51,2.51,0,0,0-1.31-.41c0,.26-.1.58-.09.87a3.99993,3.99993,0,0,0-.54,1,21.15925,21.15925,0,0,1-.61,3.1c-.44.49-.38.33-.9.59a4.63008,4.63008,0,0,1-.57.34,9.50976,9.50976,0,0,0-1.33,1s-.06,0,0,.06c.52,0,.57,0,.85.42.45,0,.82-.38,1.3-.28v.52s.08.21.1.19a2.29,2.29,0,0,1-.4.71c0,.56-1.78,1.78-2.15,2a6.38,6.38,0,0,1,.17-2.12,1.35,1.35,0,0,1,0-.45c0-.16-.63-.84-.71-1.22h0c-.75-.15-.24-.78-.65-.93-.18,0-.3.84-.48,1a.47.47,0,0,0-.06.28l-.09.05c0,.44-.58.87-.64,1.16a6.56984,6.56984,0,0,0,0,1.87,15.67964,15.67964,0,0,1-.32,3c-.11.91-.74,1.12-.31,2.13a2.57,2.57,0,0,0,1.36.81c.21,0,.36.63.58.75s.52.43.8.57,1.13,0,1.34.36.51,3.2,1.38,3.46h0c0,.25.5.46.69.59a4.68,4.68,0,0,0,2.62.81,4.37,4.37,0,0,0,1.14,0,4.23,4.23,0,0,0,2.63-.23l.66-.14h.56c.12,0,1.33-.3,1.24-.42a.35.35,0,0,1,.16,0c.33-.08,2.32-.66,2.29-.59s.51-.2.6-.25h-.14v-.06l.1-.15h.06v-.14h.06l.09.06a.16007.16007,0,0,0,.05-.09v-.08l.1-.15h-.11c0-.29.39-.37.48-.62h.06v.14l.2-.26h.06l-.06.11c.06,0-.05.14.06.09l.06-.14.11-.08v.06l.14-.17ZM64.04,9.54V9.11c.61-.6.45-.83.37-1.57,0-.34.22-.63.22-.91s-.08-2.11-.16-2.54c0-.25-.2-.46-.24-.71h.25a2.75,2.75,0,0,0-.34-.8l.2-.14c3,.18,2.91,3.12,4.47,4.36.16.13.27.35.5.39s.22-.11.36-.12a.97723.97723,0,0,1,.41.15c.14.06.15.22.3.22l.09-.23c.19,0,.37-.12.54-.08a2.41,2.41,0,0,0,.62.06c-.18-.41-1.25.18-1.25-.34.67-.05,1.25-.09,1.93-.09a.62.62,0,0,1-.48.34,1.26,1.26,0,0,0,.21.31l-.17.15.26.08c.15-.33.19-.23.51-.23V7.3h.09l.06.14h.06c0-.25.29-.26.48-.2a3.47014,3.47014,0,0,0-.17.59c.09,0,.5,0,.51.12h.06l.2-.25a.2.2,0,0,0-.14-.09l.06-.17c.18,0,.46.16.45-.14a6.44025,6.44025,0,0,1,.91.4v.01c-.36-.06-.82-.28-.82.31-.2,0-.23-.13-.2-.31a.14.14,0,0,0-.15,0c-.32,1-2.63,1.2-3.33,2-.09.1,0,.37,0,.5s-.13.25-.15.4a2.90989,2.90989,0,0,0,.09.59v.34a14.31959,14.31959,0,0,0,.14,1.43l.14.1c.31-.31,1-.24,1.29-.34a7.85972,7.85972,0,0,0,.75-.48c.33-.81,1.3-1.5,1.52-2.18V9.79a2.5,2.5,0,0,0,.81-2c-.12-.46-.67-.53-1-.7l.09-.07c.89.25,1.56.48,1.43,1.57a22.34966,22.34966,0,0,0-.41,3.28c0,.07-.1.16-.13.21a2,2,0,0,0-.24.47,14.59952,14.59952,0,0,0-.41,2.12c-.06.38-.21,2.15-.71,2.15.11.81-1.76.93-2.39,1.16s-1.24,2.44-1.4,3c-.06.25-.59.6-.61.84a16.58979,16.58979,0,0,1-.34,3.41,17.22959,17.22959,0,0,1-.73,1.68,3.13986,3.13986,0,0,0,0,.61,15.42945,15.42945,0,0,0-.2,1.56,6.99989,6.99989,0,0,1,.08.89c0,.11-.34.6-.45.6s-.11-.19-.17-.2c-.06.34.06.7,0,1l-.06.06-.23-.15h-.06c0,.15,0,1.05-.2,1.05a1.11,1.11,0,0,1-.08-.45h-.17v-.06l.12-.15a2.38021,2.38021,0,0,1-.48.31c-.23,0-.23-1.61.19-1.87l.14.12V30h-.54c0-.3-.39-1.93-.62-1.95-.19.35-.36,1.19.08,1.38a1.22991,1.22991,0,0,1,0,.48h-.09l-.05-.4H65.4a7.43059,7.43059,0,0,1,.09.79h-.17c-.07-.27,0-.55-.09-.82a3.52,3.52,0,0,1-.27-1.75c0-.12.13-.19.13-.32a5.57965,5.57965,0,0,0-.26-.79c.07-.82,0-1.68,0-2.52,0-.36-.24-.73-.27-1.07-.11-1.23.43-1.47-.28-2.85a25.10012,25.10012,0,0,1-3.34.89c-.26.08-.48.28-.75.35a7.2101,7.2101,0,0,1-1.53-.23c-.31-.23-.39-1.22-.47-1.61-.71-.06-1.41.85-1.81-.18a.72994.72994,0,0,0-.18-.23h-.14a8.82994,8.82994,0,0,0-.34-.82,2.23956,2.23956,0,0,0-.08-.31c-.62-.33-.14-2.2-.17-2.57a3,3,0,0,0,.38-.88c.37-.22.31-.86.31-1l.2-.18c0-.22.54-1,.48-1.13s.36-.93.38-.95a1.18023,1.18023,0,0,0,.07-.18c0-.07.59-1.5.63-1.65h.14c0-.13.33-.81.45-.81a4.79359,4.79359,0,0,1,.51,1.43l.19.34a1.28,1.28,0,0,1,0,1.14h.17v.11h.18c.48,0,.66-.44,1-.57a5.38008,5.38008,0,0,0,1.09-.49,8.46981,8.46981,0,0,1,.81-.26A7.68009,7.68009,0,0,1,64.04,9.54Zm0,2.4c-.41,1-2.42,1.29-3.06,1.81a9.27984,9.27984,0,0,0-1.33,1.56c-.09.11,0,.19-.23.41l-.16.67-.29.53c-.25.06-.6.86-.45,1.06-.24.21-.3.32-.18.63l.27-.12c.64.1,1.19-1.16,2.39-1.32a5.1,5.1,0,0,0,2.52-.8c.24-.47,1-1.09,1.1-1.49.15-.62-.26-1.12-.26-1.69a4.79,4.79,0,0,0-.27-1.24Zm1.81,19.07h-.08a.62417.62417,0,0,1,.06-.28c-.16,0-.22-.09-.34-.17-.09.32,0,.42.13.68a2.10045,2.10045,0,0,1,.11.43h.06l.11-.21Zm2-.31c0,.37-.06.69-.06,1,.25.01.34-.86.12-.99Zm-1.81.28a1.72,1.72,0,0,0,0,1h.06v-.11c.09-.23.2-.66,0-.88ZM73.46,7.22v.31h.06C73.6,7.53,73.52,7.26,73.46,7.22Zm-.49-.27.12-.06h.25a1.48,1.48,0,0,0,.56,0h.06c-.43,0-.83-.17-1.27-.17l-.2.17v.06c.07,0,.09.07.17.06Zm.63.31v.09h.37a2.11012,2.11012,0,0,0-.34-.12Zm20.77,9.55v.05a1.11408,1.11408,0,0,1-.14.31,1,1,0,0,1-.11.37s-.17.09-.19.14a.82.82,0,0,1-.09.17h.09a1.29,1.29,0,0,0,.67-.15l.46-.13.45-.06a.7.7,0,0,1,.37,0h.17c.36.14.65-.17.85-.41a2.9572,2.9572,0,0,1,.07-.68,1.54017,1.54017,0,0,0-.09-.4c0-.12,0-.19-.12-.27s-.12-.09-.14-.09l-.26-.09a.7.7,0,0,0-.54-.06.92351.92351,0,0,1-.08-.09,3.33835,3.33835,0,0,0-.51-.23l-.37-.16a5.22014,5.22014,0,0,1,.18.57,1.27,1.27,0,0,1-.45,1c-.12.11-.13.11-.22.2Zm-10-3.78v-.49c0-.18-.09-.3,0-.46-.21,0-.15-1-.19-1.23a1.03739,1.03739,0,0,0-.1-.32.84.84,0,0,0-.06-.23,1.17035,1.17035,0,0,1-.09-.2,1.82994,1.82994,0,0,1-.4-.7,2,2,0,0,0-.23-.77l-.26-.15a.53.53,0,0,1-.12.4,5.78957,5.78957,0,0,1-.22.7,2.14,2.14,0,0,0-.09.8l.09.35v1.1a4.62982,4.62982,0,0,1,.1.66c0,.23-.12.33-.14.52s0,.54,0,.8l-.14.38c-.07.19-.13.39-.18.58s0,.39-.06.39.06.1.06.17v.85c0,.28-.08.31-.1.46v.34a2.79882,2.79882,0,0,1-.07.75,5.3449,5.3449,0,0,0-.14.52,5.70952,5.70952,0,0,0-.06.63,5.22817,5.22817,0,0,0,0,1h0a3.1,3.1,0,0,0-.09.48c0,.15-.13.27-.17.41a1.73,1.73,0,0,0,0,.92,2.56006,2.56006,0,0,1,.05.55c-.09.39.19.89-.08,1.21,0,.23-.08.38-.09.61a2.69,2.69,0,0,0,.73,2.14c.13.12.34.27.52.18l.19-.25a3.47,3.47,0,0,0,.12-2.42,3.38944,3.38944,0,0,1,0-.37,7.93987,7.93987,0,0,1,.17-1.18,4.6591,4.6591,0,0,1,.06-.71c-.38-.22-.19-1.15-.1-1.53a1.9999,1.9999,0,0,0,0-.7,4.54048,4.54048,0,0,1,.15-.86,2.87,2.87,0,0,1,.15-.67,5.67973,5.67973,0,0,1,.21-.84c0-.06.15-.74.21-1s.21-.5.22-.58a1.90028,1.90028,0,0,1,.14-.48v-.2l-.13-.29v-.43c0-.1.1-.18.12-.27s.05-.5.08-.63ZM95.58,23.11V23h-.23c-.42.33-1.68.46-1.81.68h-.22c-.2,0-.52.29-.72.32a3.41152,3.41152,0,0,0-.79.1,11.08952,11.08952,0,0,0-1.11.47,4.49,4.49,0,0,0-1.1.34l-.31.05c-.23-.16-1.26.41-1.5.52a3.67194,3.67194,0,0,0-.37-.11c-.48,0-.82.28-1.22.3s-.59,0-.88,0-.3.13-.45.1-.2-.13-.49-.07c.17.3.87,2,1.16,2.06.11,0,.39,0,.46.1.29-.11,1.22-.23,1.36-.45h.12c.16-.09.74-.28.81-.4a7.27015,7.27015,0,0,0,1.61-.54.82.82,0,0,0,.37-.14c0-.13.48-.24.59-.29s.43-.26.65-.38a16.79023,16.79023,0,0,0,1.53-1.11c.66-.45,1.46-.71,2.15-1.16a4.40942,4.40942,0,0,0,.37-.29ZM84.49,11.59h.11a7.50609,7.50609,0,0,1,1,.52c.12.11,0,.36,0,.5a.79.79,0,0,0,.34.47.83.83,0,0,0,.38,0h1a1.39,1.39,0,0,1,.54,0,.28.28,0,0,1,.15.15,1.91987,1.91987,0,0,1,.07.48c0,.14.06.26.06.42a2.72,2.72,0,0,1-.06.59c0,.15-.14.23-.19.37a2.83,2.83,0,0,0-.45.08l-.33.19a6.33983,6.33983,0,0,0-1,.41c-.15.08-.26.2-.41.29a3.39989,3.39989,0,0,0-.61.41l-.29.3a.2.2,0,0,0,.05.14V17c-.11,0-.28.23-.34.31s0,.22.06.28a.11.11,0,0,1,.09.1c.09.28.62.45.9.44a1.71,1.71,0,0,0,.52.67l.41.09h.31a.48.48,0,0,1-.06.25.61986.61986,0,0,0,0,.2s0,.37-.17.51a1.49006,1.49006,0,0,1-.17.39c-.05,0-.08.16-.08.17-.28,0-.71.64-.71.68s-.19.28-.25.4,0,.11,0,.17a2.08,2.08,0,0,1-.29.65v.28s.13.44.2.61a1.21,1.21,0,0,0,.4.49c0,.12.21.14.29.15a2.87,2.87,0,0,0,.87,0l.52-.14a2.94,2.94,0,0,0,.54-.12l.58-.3a7.65018,7.65018,0,0,0,1.07-.36,1.33993,1.33993,0,0,0,.24-.19,3.3,3.3,0,0,0,.77-.48,1.1346,1.1346,0,0,0,.45-.23,2.15,2.15,0,0,0,.43-.2c.12-.06.24-.05.36-.1l.38-.2a3.00023,3.00023,0,0,1,.5-.15s.68-.44.71-.49a3.00008,3.00008,0,0,1,.52-.41.88.88,0,0,0,.36-.47.89.89,0,0,1,.09-.26l.07-.09h-.29c-.33,0,0-.6.11-.68a4.5098,4.5098,0,0,0-.65,0,.68422.68422,0,0,1-.38-.15,4.92,4.92,0,0,0-1.09.08s.1-.35.11-.45a2.73988,2.73988,0,0,1,.17-.74c-.13,0-.07-.12-.1-.21h-.05s.4-.29.51-.17.54-.83.59-.89a3.99989,3.99989,0,0,0,.68-.68.26278.26278,0,0,1,.06-.2,1.57024,1.57024,0,0,0,.14-.3v-.34a.56.56,0,0,0-.08-.36,1.51,1.51,0,0,0-.45-.43l-.72-.52-.32-.17-.11-.11a1.14,1.14,0,0,0-.3-.18.99059.99059,0,0,1,.09-.14,2,2,0,0,1,.23-.74l.17-.19c0-.05.6-.59.57-.62.22,0,.54-.71.56-.74a4.4591,4.4591,0,0,1,.27-.38c.14-.22,0-.42,0-.67,0-.08.06-.13.09-.2a.6.6,0,0,0-.05-.39,5.61082,5.61082,0,0,0-.38-.65c0-.11-.2-.27-.23-.25,0-.2-.32-.32-.49-.34-.23.23-1.08.24-1.42.37a5.14992,5.14992,0,0,0-.82.13,5.17,5.17,0,0,1-.62.18c0,.05-.46.18-.71.37a2,2,0,0,0-.65.18,2.53953,2.53953,0,0,1-.26.1,1.74,1.74,0,0,1-.28.05.76.76,0,0,0-.24.06c-.17.08-.5.24-.5.25a2.13992,2.13992,0,0,0-.58.25,3.45171,3.45171,0,0,1-.52.29,2,2,0,0,0-.34.08.594.594,0,0,0-.11.08.06.06,0,0,0-.05,0c-.1,0-.17.22-.17.23a.6.6,0,0,0-.37.22,2.23009,2.23009,0,0,0-.45.31C84.7,11,84.34,11.11,84.49,11.59Zm15.68-.79a1.5,1.5,0,0,1,.18-.76,5.74,5.74,0,0,1,.07-1.3c-.61,0,.1-2.39,0-2.71a6.93,6.93,0,0,0-1.64-2.32,2,2,0,0,0-.9-.21c-1,.29-3.24.18-3.92.89a2.63,2.63,0,0,0-1.09.07l-.07.08a10.0899,10.0899,0,0,0-1.77.32h-.25c-.55.3-1.48.33-1.93.76a7,7,0,0,0-.89.39c-.36.24-.76.64-1.23.54a21.24975,21.24975,0,0,0-2.46.88c0,.15.95.08,1,.57.18,0,.33.13.51.15a3.41,3.41,0,0,0,1.95-.29c.18.1,1-.31,1-.31a.68.68,0,0,1,.62-.25,3.69013,3.69013,0,0,1,.57-.3,3.28,3.28,0,0,0,.69-.18,9.54007,9.54007,0,0,1,2.06-.66,3.3,3.3,0,0,0,.91-.14c.1,0,.34-.17.42-.14.48-.23,1.64.08,2.08,0s.57.1.9.21l.28.45c.17,0,.32.57.37.68s-.17,1.06,0,1.19c-.25.62-.24,4.13-.42,4.47a9.90913,9.90913,0,0,1-.17,1.57,12.79986,12.79986,0,0,1,.13,2.13c0,.39-.22.77-.22,1.1s.25,1.09,0,1.33a29.35,29.35,0,0,1,.45,3.46,6.42024,6.42024,0,0,0-.52,1.36,2.99864,2.99864,0,0,1,0,.36l.08.14a2.26953,2.26953,0,0,1,0,.46c0,.15.12.8-.16.79s-.46-.44-.7-.62h0c-.26-.23-.6-.61-1-.4a3.62,3.62,0,0,0,.62,1.92l.11.07a5.79985,5.79985,0,0,0,.82,1.57s.07.14.08.17c.2.39.47,1.55.6,1.75a7.46861,7.46861,0,0,0,2.15,1.39.33.33,0,0,0,.14,0v-.11c.29,0,.37-.22.52-.42.79-1,.43-1.5.49-2.59a7.15974,7.15974,0,0,0,.19-1.89c-.06-.32-.56-1.48-.09-1.64a5.72,5.72,0,0,0-.12-1.45,6.16,6.16,0,0,0,.09-2.29c-.07-.62.1-1.3,0-2-.18-1.44-.11-2.88-.16-4.33,0-.67-.12-1.28-.09-2C100.42,12.3,100.2,11.2,100.17,10.8ZM150.37,26c-.07-.14-.28-.17-.4-.21s0,0-.05,0c-.1-.2-.24-.22-.42-.34s0-.28,0-.31c.08-.3.5-1.35.56-1.59a3.65961,3.65961,0,0,0,.05-.85,2.2295,2.2295,0,0,1,0-.65,4.339,4.339,0,0,0,0-.74,2.36029,2.36029,0,0,0-.45-.53,3.10983,3.10983,0,0,1-.42-.72,1.76007,1.76007,0,0,0-.57-.41c-.1-.05-.16-.15-.26-.21a1.43,1.43,0,0,0-.61-.15,2.21352,2.21352,0,0,1-.63,0c-.18-.06-.23-.12-.34-.14l-.63.36a4.73937,4.73937,0,0,1-.62.45c-.14.06-1.94,1-2.4,1.23-.2.12-.46,0-.65.18-.46,0-.44-.15-.68-.43l-.22-.25c-.06-.12-.07-.31-.17-.41-.28-.26-.66-.23-1-.4a1,1,0,0,1-.33-.35l-.12-.15c-.11-.07-.12,0-.19.08,0,.26-.15.9-.14,1a2.39974,2.39974,0,0,0-.05.76,9.29053,9.29053,0,0,1,.24,1.08,9.45009,9.45009,0,0,0,0,1.15c0,.1.06,1.06.06,1.25a6.60042,6.60042,0,0,0-.07.88,9.64866,9.64866,0,0,0,.18,1.13,5.271,5.271,0,0,0,.21.64l.09.2c.07.34,0,.27,0,.64a.6.6,0,0,0,.34.45.75835.75835,0,0,1,.46.1,3.50023,3.50023,0,0,0,.63.29c.15.1.21.46.46.41s.12-.31.16-.42a4.49014,4.49014,0,0,0,.3-.56,2.76061,2.76061,0,0,0,0-.56l.13-.64c0-.31.07-.13.11-.45,0-.13.1-.88.13-1.1a7.69861,7.69861,0,0,0,.12-1c0-.25-.24-.41-.3-.64s.06-.31,0-.44a.3802.3802,0,0,1,0-.41c.1-.13,0,0,.09,0a2.17,2.17,0,0,0,1.16,0c.14-.06.32-.35.43-.48a5.49018,5.49018,0,0,1,1.1-.77,1.717,1.717,0,0,1,.14.25,2.19989,2.19989,0,0,1,.06,1.07,6.49008,6.49008,0,0,1-.86,1c-.36.38-.84.65-1,1.15.07,0-.1.11-.13.13v.29a5.16053,5.16053,0,0,0,0,1.47,1.49995,1.49995,0,0,0,.68.41c.14.07.2.23.35.27a5.31,5.31,0,0,0,1.23.07,7.4,7.4,0,0,1,1.3-.23,6.38992,6.38992,0,0,1,.76.13,4.08,4.08,0,0,0,1,0,3.34971,3.34971,0,0,0,.44-.23,2.29991,2.29991,0,0,0,.41-.04c.11-.09.25-.18.29-.31a1.77965,1.77965,0,0,0,0-.43c-.03-.26.14-.78.05-.97Zm-8-11.15a4.22016,4.22016,0,0,0-.63.13l-.06.16a.60994.60994,0,0,0,0,.34,5.00012,5.00012,0,0,0,.67,1c.15.12.6.52.69.6a1.78,1.78,0,0,0,.56.27,4.23012,4.23012,0,0,0,.79,0l.66.11c.32,0,.53.3.83.37a2,2,0,0,0,.56-.07,1.8,1.8,0,0,0,.43,0c.13,0,.23-.15.37-.19a2.38994,2.38994,0,0,0,.43-.12,1.86,1.86,0,0,0,.65-1c0-.16-.07-.32,0-.47a.68.68,0,0,1,.26-.24c.07,0,.2,0,.23-.13s-.06-.39,0-.55-.74-.26-.89-.19a3.93,3.93,0,0,1-.57.07,14.49973,14.49973,0,0,0-1.49-.35,6.47994,6.47994,0,0,0-.82,0s-1.39.06-1.81.13l-.18994-.01a3.53994,3.53994,0,0,0-.65.14Zm5.86-3.38c-.11-.12-.36-.13-.5-.21a2.66076,2.66076,0,0,1-.31-.29.72.72,0,0,0-.65-.16,2.61992,2.61992,0,0,1-.48,0,4.57989,4.57989,0,0,1-.77-.14,3.65,3.65,0,0,0-1,0l-.83.24a.56.56,0,0,0-.27.11,1.17007,1.17007,0,0,0-.48.17c-.16,0-.19.11-.25.24-.19.4.17.76.55.86a8.00025,8.00025,0,0,1,1,.51l.23.25.25.11c.29.14,1.08.5,1.14.5l.62.16h1c.21,0,.33.21.58.09s.4-.63.48-.72a2.23925,2.23925,0,0,1,.19-.26,3.59036,3.59036,0,0,1,0-.66c0-.23-.18-.23-.33-.3s-.08-.42-.15-.51Zm-11,3.61c-.06-.09-.18-.12-.26-.19l-.23-.24a2.84008,2.84008,0,0,0-.44-.23,1.81007,1.81007,0,0,0-.71-.33,2.77011,2.77011,0,0,0-.5.09,2.9,2.9,0,0,1,.29-.87,3.42932,3.42932,0,0,0,0-.75c0-.16.11-.27.12-.41a5.2501,5.2501,0,0,0-.82-2.28l-.05-.31a3.14025,3.14025,0,0,0-.27-.67.91.91,0,0,0-.6-.51,1.07,1.07,0,0,0-.17.48V9.1a5.30964,5.30964,0,0,0-.31,1.33,5.709,5.709,0,0,0-.5.86l-.07.27-.17.31a8.11938,8.11938,0,0,1-.4,1l-.58,1.16-.14.36-.39.45a4.68034,4.68034,0,0,0-.28.48l-.33.42a4.57158,4.57158,0,0,0-.18.59,3.00044,3.00044,0,0,0-.17.64v.57a2.77429,2.77429,0,0,0,0,.91c0,.08.13.1.19.15a.87011.87011,0,0,1,.27.37,2.18012,2.18012,0,0,1,0,.81v.44l-.06.41c0-.07.1-.12.13-.17l.09-.33v-.06h.06v.06a.38988.38988,0,0,1-.06.19v.07h.35c0-.09.1-.16.13-.23a2.35015,2.35015,0,0,1,.25-.71l.42-.46.23-.16c.22-.21.41-.43.64-.65l.38-.32c.13-.13.43-.55.58-.6.35-.1.64.24.74.52l.08.56a5.90989,5.90989,0,0,1,.14,1.2,10.37412,10.37412,0,0,1,0,1.48,7.44117,7.44117,0,0,1-.21.84c0,.11-.14,1.39-.17,1.57s-.18.55-.22.7-.27,1.4-.29,1.8l-.06.47v1.48a.9.9,0,0,0,.8.89c0-.17.24-.33.35-.44,0,.11.61,0,.34-.25v-.37c.08-.29.59-.26.59-.26a4.12676,4.12676,0,0,0,.39-.61,10.51163,10.51163,0,0,0,.17-1.2l.08-.85a5.84906,5.84906,0,0,1,0-.85,5.18874,5.18874,0,0,1,.13-.88c.05-.26.18-1.55.22-1.77s.13-.94.15-1,0-1.2.07-1.36a9.8924,9.8924,0,0,1,.08-1c.03-.3-.1-.78-.07-1.11a2.41027,2.41027,0,0,1,.24-.55,2.51991,2.51991,0,0,0,.11-.85.59.59,0,0,0-.08-.34ZM151.3,7.43c-.34-.41-1.26-.18-1.76-.21a4.84,4.84,0,0,0-1.33,0c-.17,0-.49,0-.47-.25a1.22027,1.22027,0,0,0,.05-.35c0-.15-.12-.56-.11-.64a2.18807,2.18807,0,0,0,0-.77,1.25,1.25,0,0,0-.5-.38,2.45029,2.45029,0,0,1-.3-.07l-.37-.25c-.12-.06-.24-.08-.37-.14s-.32-.1-.46-.18a3.37018,3.37018,0,0,0-.61-.3,3.09016,3.09016,0,0,0-.57-.18.94009.94009,0,0,0-.3.09,3.15007,3.15007,0,0,0-.46.85h0a1.21884,1.21884,0,0,0-.29-.06c-.11,0-.48.27-.35.22v.06a.55.55,0,0,0-.2.08c-.31.15-1.06.86-.65.71h.06c.06,0-.12.08-.17.11a2.48,2.48,0,0,1-.72.27,1.00031,1.00031,0,0,1-.09.22c.06,0,.09.09.18.09.27,0,.68-.21.71-.5l.28.06.2-.05a1.82,1.82,0,0,1,.89,0c0,.19-.65.15-.8.13a3.41941,3.41941,0,0,1-.47.22c0,.07.22.12.28.14a5.87983,5.87983,0,0,0,.89.1,2,2,0,0,1,1.17.94,2.74969,2.74969,0,0,1-.36.43l-.3.14-.38.06c-.25,0-1.21.26-1.33.25l-1,.08a5.65,5.65,0,0,0-.83.24c-.11,0-.6.09-.82.12a4.72991,4.72991,0,0,0-.87.09l-.79.23a3.86023,3.86023,0,0,1-.41.25h-.07a.39991.39991,0,0,0-.09-.14c-.08,0-.15.14-.19.19a.8975.8975,0,0,0-.08.38c0,.54.27.46.65.61a1.65007,1.65007,0,0,0,.47.17,3.39,3.39,0,0,0,1-.31,9.82319,9.82319,0,0,1,1-.2l1-.28a7.75,7.75,0,0,1,1.58-.23c.67,0,1.48,0,2.17-.06h2.95c.23,0,1.16-.21,1.3-.21a3.09272,3.09272,0,0,0,.71.1c.1,0,.55-.16.61-.15s.06-.2.07-.25-.1-.37,0-.53.19-.12.29-.18.63-.48.38-.76Z" style="fill:#fff"/><path d="M590.54,2.71h1v40h-1Z" style="fill:#fff;opacity:0.400000005960465;isolation:isolate"/><circle cx="163.03999" cy="22.71" r="4" style="fill:#fff;opacity:0.400000005960465;isolation:isolate"/><path d="M181.457,20.60156q-2.69092-2.56055-5.39941-4.75l1.373-1.373q2.98682,2.31958,5.51074,4.60156Zm-4.43457,17.84961q1.87354-5.937,3.5625-13.749,1.05762.46436,2.02246.79785-1.6333,5.82642-3.43262,13.71191ZM182.86719,10.916q-2.72754-2.61621-5.251-4.71289l1.373-1.33594q2.93115,2.31958,5.3623,4.52734Zm1.373,14.84375-.24121-2.18945q.854-.241,2.72754-.7793,1.37256-.38965,2.05957-.59375V12.91992h-4.36035V11.10156h4.36035V4.06934h1.98535v7.03223h4.249v1.81836h-4.249v8.665q1.26123-.37061,3.67383-1.1875c.13574-.04932.24121-.08643.31543-.11133q.05566,1.13232.14844,1.98535-1.96729.57568-4.1377,1.29883V35.07422q.167,4.1001-3.65527,4.02637-.687.01831-1.46582.03711H183.665a20.60777,20.60777,0,0,0-.38965-2.24512q1.6875.167,3.50684.167,2.11523.12964,2.00391-2.09668V24.20117q-.835.27832-2.43066.835Q184.92578,25.53711,184.24023,25.75977Zm8.999,12.61719q4.26709-6.197,4.02637-18.88867V6.68555a79.32179,79.32179,0,0,0,13.37793-1.28027l.6123,1.92969q-5.56641.7793-12.00488,1.09473v9.38867h12.52441v1.874h-4.28613V39.75h-1.9668V19.69238H199.251q.20361,13.17407-4.11914,19.87207A14.24084,14.24084,0,0,0,193.23926,38.377Z" style="fill:#fff"/><path d="M220.40332,20.56445q-2.81982-2.24487-6.49414-4.63867l1.29883-1.55859q3.00586,1.87427,6.64258,4.49023Zm-5.12109,17.4043a120.84625,120.84625,0,0,0,5.04688-12.93262,10.56713,10.56713,0,0,0,2.05957,1.07617q-1.44727,3.52588-4.249,11.18848-.46436,1.22461-.68652,1.83691Zm6.84668-27.01562q-3.48926-2.87549-6.23437-4.87988L217.249,4.57031q2.24561,1.54028,6.3457,4.65723Zm1.85547,23.78711h12.00488V9.43164h-9.75977V7.4834H248.4209V9.43164h-10.335V34.74023H250.0166v1.89258H223.98438Z" style="fill:#fff"/><path d="M271.85547,39.10059h-2.041V27.24414h-11.708a24.5433,24.5433,0,0,1-4.32324,12.43164,18.56693,18.56693,0,0,0-1.91113-1.373,22.13826,22.13826,0,0,0,3.61816-7.7373,49.72209,49.72209,0,0,0,.87207-11.33691V6.03613h29.40918v28.5q.167,4.58276-4.67578,4.63867-1.07666.03662-2.05957.05566c-.32129.01221-.66211.01855-1.02051.01855h-1.33594a17.658,17.658,0,0,0-.37109-2.18945q2.04053.11133,4.416.11133,3.11719.11133,2.9873-2.709V27.24414H271.85547ZM258.40332,19.30273q0,2.69092-.14844,6.123h11.55957V17.5957H258.40332Zm0-11.35547v7.83008h11.41113V7.94727Zm25.30859,0H271.85547v7.83008h11.85645ZM271.85547,17.5957v7.83008h11.85645V17.5957Z" style="fill:#fff"/><path d="M306.18164,4.64453l1.85547-.92773q1.85449,2.70923,3.1543,4.80566l-1.707.835h13.48926V25.07324H320.877V23.18066H296.5332q-.09375,9.76025-4.87988,16.34668a15.29462,15.29462,0,0,0-1.74414-1.373,23.1273,23.1273,0,0,0,3.69238-7.75586,43.91388,43.91388,0,0,0,.90918-10.66895V9.35742h14.584A54.45468,54.45468,0,0,0,306.18164,4.64453Zm-9.57422,6.64258V21.251H320.877V11.28711Z" style="fill:#fff"/><path d="M331.249,25.79688q5.4917-.501,8.73926-.90918-.13037.94629-.18555,1.98535-7.292.57568-10.873,1.16895l-.76074-2.11523a6.55329,6.55329,0,0,0,2.09668-1.7998q2.2998-2.83887,4.93555-6.64258-4.5835.20435-6.60547.44531l-.64941-2.00391a6.32225,6.32225,0,0,0,1.63281-1.707,98.37191,98.37191,0,0,0,6.457-10.502l2.05957.85352q-3.85986,6.3457-7.60742,11.39258.35156-.01831,1.22461-.05566,3.30176-.14795,4.75-.24121,1.44727-2.11523,2.61621-3.95215l1.94824.9834Q336.25781,19.65527,331.249,25.79688ZM328.33594,35.9834l-.38965-2.041q5.52832-.79761,12.43164-1.98535-.03809.44531-.05566.90918-.019.40869-.01855,1.15039Q334.38428,34.87061,328.33594,35.9834Zm10.94727,1.83691V35.9834h4.47168V6.07324h17.0332V35.9834h3.1543v1.83691Zm6.457-29.94727v8.20117h13.0625V7.873Zm0,9.94531v8.21973h13.0625V17.81836Zm0,9.96387V35.9834h13.0625V27.78223Z" style="fill:#fff"/><path d="M369.71289,26.14941q4.80469-.408,7.86719-.68652a15.22848,15.22848,0,0,0-.14844,1.89258q-6.60645.40869-9.88965.87207l-.79785-2.00391a8.09408,8.09408,0,0,0,1.98535-1.89258q2.20752-2.7832,4.67578-6.5127a61.80424,61.80424,0,0,0-6.73535.42676l-.6123-1.94824a10.30122,10.30122,0,0,0,1.874-2.15234,66.88041,66.88041,0,0,0,5.88184-10.37207l2.13379.79785Q372.458,10.749,368.72949,16.22266q3.76611-.09229,5.80762-.18555,1.16895-1.76221,2.39355-3.95215l2.02246.94629Q374.62891,19.5813,369.71289,26.14941Zm-3.61816,8.59082q5.45508-1.002,12.02344-2.31934,0,1.28027.03711,1.9668-5.78906.98291-11.48535,2.31934Zm19.35254-7.18066,1.81836,1.05762a100.24613,100.24613,0,0,1-8.5166,10.76172l-1.66992-1.373A66.9323,66.9323,0,0,0,385.44727,27.55957ZM380.88281,6.53711h18.46191V24.27539H380.88281Zm2.02246,1.81836V22.457h14.43555V8.35547ZM392.665,28.6543l1.5957-1.09473q4.13672,5.12109,7.57031,9.72266l-1.83691,1.33594Q396.61621,33.58936,392.665,28.6543Z" style="fill:#fff"/><path d="M421.499,36.1875q1.96582.01831,4.60156.01855h5.21387q5.13867-.019,8.5166-.07422a9.299,9.299,0,0,0-.85352,2.09668q-10.09424-.03735-17.8125-.18555a13.19724,13.19724,0,0,1-11.05859-4.86133q-2.44922,2.89453-4.67578,6.10449l-1.66992-1.46582q2.50488-3.13623,5.3623-6.23437V18.72754h-4.82422V16.79785H411.127V31.41895A12.01078,12.01078,0,0,0,421.499,36.1875ZM411.27539,12.01074q-2.56055-3.71045-4.78711-6.60547l1.68848-1.07617q2.56055,3.19189,4.97266,6.49414Zm17.6084,9.75977L430.62793,20.75q3.8584,5.14014,7.64453,10.52051l-1.72559,1.22461q-.27832-.42627-1.002-1.41016-.6123-.87158-.92773-1.33594-8.46094.26-15.54883.6123a18.09079,18.09079,0,0,0-2.9873.35254l-.96484-2.05957a7.37191,7.37191,0,0,0,2.1709-1.74414,56.7455,56.7455,0,0,0,6.41992-9.24023h-8.9248V15.81445h24.3623v1.85547h-12.8584a127.4169,127.4169,0,0,1-7.81152,10.83594q6.91992-.334,14.88086-.5752-.687-.94629-2.041-2.80176Q429.56982,22.69873,428.88379,21.77051ZM417.28711,6.31445h19.64941V8.16992H417.28711Z" style="fill:#fff"/><path d="M442.26172,6.96387h11.05859V3.80957h1.9668v3.1543h9.35156V3.80957h1.9668v3.1543h11.16992V8.708H466.60547v2.39355h-1.9668V8.708h-9.35156v2.39355h-1.9668V8.708H442.26172Zm1.13184,5.65918h33.17578V18.5791h-2.05957V14.36719H445.45313V18.5791h-2.05957Zm3.1543,16.14258H473.415V39.56445h-1.98535V37.65332H448.5332v1.91113h-1.98535Zm1.98535,1.707v5.47363h22.89648V30.47266Zm.63086-12.76562h21.63477v7.5332H449.16406Zm1.98535,1.707V23.5332h17.66406V19.41406Z" style="fill:#fff"/><path d="M482.08008,5.665h31.98828v1.9668H499.05762V24.01563h16.64355v2.02246H499.05762v13.6748h-2.11523V26.03809H480.373V24.01563h16.56934V7.63184h-14.8623Zm2.041,6.457,1.68848-1.09473q3.28418,4.10083,6.67969,8.73926l-1.85547,1.24316Q487.90625,16.98364,484.12109,12.12207Zm20.48438,9.05469-1.66992-1.373a73.873,73.873,0,0,0,7.06934-8.81348l1.874,1.16895Q508.55664,16.57568,504.60547,21.17676Z" style="fill:#fff"/><path d="M552.2168,21.00977q-1.91162-1.98486-3.02441-3.11719-16.40332.40869-25.5127.89063a23.88887,23.88887,0,0,0-3.59961.4082l-.9834-2.208a8.83225,8.83225,0,0,0,2.76465-1.66992A87.763,87.763,0,0,0,533.458,3.60547l2.11523,1.1875a140.82563,140.82563,0,0,1-12.33887,11.96777q4.37842-.11133,14.32422-.42676,4.76807-.14795,9.79688-.29687-1.94824-1.98486-5.88184-5.84473l1.66992-1.22461q4.9541,4.63916,10.91016,10.65039Zm-3.377,2.46777v16.124h-2.041V37.13379H525.16406v2.46777h-2.041v-16.124Zm-23.67578,1.91113v9.79687h21.63477V25.38867Z" style="fill:#fff"/></svg>