<svg xmlns="http://www.w3.org/2000/svg" viewBox="0 0 24.00089 24.00089"><title>ico_location</title><path d="M12.00012,6.99988a4,4,0,1,0,4,4A4.00007,4.00007,0,0,0,12.00012,6.99988Zm0,6.00012a2.00006,2.00006,0,1,1,2-2.00012A2,2,0,0,1,12.00012,13Zm0-11A8.99982,8.99982,0,0,0,5.63739,17.36505l4.94849,4.94855a1.99982,1.99982,0,0,0,2.82831,0l4.94855-4.94855A8.99982,8.99982,0,0,0,12.00012,2Zm4.94971,13.94971-4.94971,4.94971L7.05029,15.94971l.00006-.00006a7.00006,7.00006,0,1,1,9.89941,0Z" style="fill:#dce1e6;fill-rule:evenodd"/></svg>