<svg xmlns="http://www.w3.org/2000/svg" viewBox="0 0 60 60"><title>logo2</title><g style="opacity:0.15"><path d="M51.67664,16.5918a5.47973,5.47973,0,0,0,5.30157-4.7959A4.20366,4.20366,0,0,0,52.73309,7a5.4794,5.4794,0,0,0-5.30145,4.7959,4.56825,4.56825,0,0,0,.17963,1.89044L41.796,18.947a9.40844,9.40844,0,0,0-6.34863-2.35547,11.88492,11.88492,0,0,0-9.28931,4.74866L16.32123,16.2915a5.01047,5.01047,0,0,0,.13867-.65894,4.20377,4.20377,0,0,0-4.24512-4.796,5.47946,5.47946,0,0,0-5.30145,4.796,4.20354,4.20354,0,0,0,4.245,4.7959,5.30755,5.30755,0,0,0,3.65192-1.53564l9.82465,5.0423a11.3048,11.3048,0,0,0-.851,3.20758,9.65262,9.65262,0,0,0,1.61292,6.63922L12.27228,45.6546a3.99352,3.99352,0,0,0-1.47424-.28729,4.93143,4.93143,0,0,0-4.77142,4.31628,3.78317,3.78317,0,0,0,3.8205,4.31628,4.93151,4.93151,0,0,0,4.77142-4.31628,4.00332,4.00332,0,0,0-.35956-2.1615l13.0155-11.77417A9.46668,9.46668,0,0,0,33.123,37.69366c.25549,0,.50818-.02039.76111-.03839L35.18958,45.995a4.7926,4.7926,0,0,0-2.23578,4.65869,3.82792,3.82792,0,0,0,4.92529,3.05212,4.87893,4.87893,0,0,0,3.62-5.28644A3.723,3.723,0,0,0,38.038,45.25018l-1.28241-8.19257a12.30926,12.30926,0,0,0,5.58752-4.03406l3.593,1.844a5.07308,5.07308,0,0,0-.1911.90784A4.20362,4.20362,0,0,0,49.99,40.57129a5.47932,5.47932,0,0,0,5.30151-4.7959,4.2035,4.2035,0,0,0-4.245-4.79578,5.28514,5.28514,0,0,0-3.46533,1.35553l-3.68524-1.89136a11.28688,11.28688,0,0,0,.8905-3.30109A9.72558,9.72558,0,0,0,43.52087,21.051l5.73407-5.18726A4.31967,4.31967,0,0,0,51.67664,16.5918ZM41.92249,27.1427A8.7671,8.7671,0,0,1,33.44,34.81586a6.72561,6.72561,0,0,1-6.792-7.67316A8.76734,8.76734,0,0,1,35.13043,19.469,6.726,6.726,0,0,1,41.92249,27.1427Z" style="fill-rule:evenodd"/></g><path d="M51,30a4.97664,4.97664,0,0,0-3.47345,1.41327l-4.07867-1.97192a10.972,10.972,0,0,0-1.4765-9.79236l5.408-5.408a4.96114,4.96114,0,1,0-1.973-2.27008l-5.4845,5.4845a10.98826,10.98826,0,0,0-16.10455,2.49493L12.93079,14.687A4.94921,4.94921,0,0,0,13,14a5.03381,5.03381,0,1,0-1.35175,3.39886L22.52112,22.6557a10.98472,10.98472,0,0,0,1.93439,10.26593l-12.378,12.378a4.55395,4.55395,0,1,0,2.29645,1.947L26.64911,34.97131a10.93815,10.93815,0,0,0,6.35077,2.02856c.26764,0,.53-.02124.79285-.04l2.32965,8.69458a4.5,4.5,0,1,0,2.89777-.77655l-2.28857-8.54108A11.0456,11.0456,0,0,0,42.119,32.131l3.97638,1.92249A4.99727,4.99727,0,1,0,51,30ZM32.99988,33.99957A8,8,0,1,1,41,25.99976,7.99986,7.99986,0,0,1,32.99988,33.99957Z" style="fill:#fff;fill-rule:evenodd"/></svg>